<svg xmlns="http://www.w3.org/2000/svg">
  <path d="m 35.749498,30 c 0,12.138094 12.843682,17 12.843682,17 0,0 -7.609337,12.395754 -11.958344,20.086232 C 30.398728,78.113726 26.802427,81.186469 16,86 h 21.791474 c 0,0 -0.726952,-1.631718 9.161097,-18.252871 2.680247,-4.505321 10.470642,-19.487858 10.470642,-19.487858 h 6.539189 c 0,0 1.892723,23.193118 0,32.774729 C 63.615733,82.788956 60.922,86 60.922,86 H 80 c 0,0 -2.663571,-3.211044 -3.010238,-4.966 -4.010002,-20.300023 -4.010002,-41.76846 0,-62.068483 C 77.336429,17.210561 80,14 80,14 H 48.894204 c -2.798256,0 -13.144706,4.181037 -13.144706,16 z m 30.955283,-9.995879 c 0,0 -1.336124,7.97289 -1.761924,11.989755 -0.381394,3.597943 -0.708342,10.830912 -0.708342,10.830912 h -7.176953 c -3.352237,0 -6.945856,-1.686041 -9.116073,-4.232277 C 45.896655,36.193382 45.299101,33.195529 45.38226,29.5 c 0.125137,-5.561037 2.998397,-7.787685 4.423572,-8.806672 3.306401,-2.364046 16.898949,-0.689207 16.898949,-0.689207 z" />
</svg>
