<svg xmlns="http://www.w3.org/2000/svg">
  <path d="m 47.780686,11.504546 c -4.010188,0.0961 -9.694915,2.36255 -12.737328,5.27924 -3.042413,2.91669 -5.699002,7.3412 -6.356792,11.72646 -0.656859,4.37905 0.467547,9.14725 2.637287,13.02136 1.395319,2.49135 3.72586,4.55618 6.28359,5.87103 2.247216,1.15518 7.444946,1.50778 7.444946,1.50778 0,0 -0.478117,4.391155 -1.052389,6.514532 -0.725508,2.682573 -1.899511,5.226608 -3,7.778368 -3.116379,7.22611 -6.451406,14.5232 -10.188568,21.2967 h 9.459019 c 4.452183,-9.5074 8.701364,-18.5748 11.680829,-28.6775 0.625923,-2.1224 1.090979,-4.2736 1.380964,-6.4648 0.337364,-2.54917 0.318533,-8.02338 0.318533,-8.02338 0,0 -5.216362,0.60689 -7.745671,0.49609 C 43.188082,41.711386 40.30639,40.6889 38.8,38.7 36.339596,35.4515 35.667243,30.958686 36.591932,27.149388 37.306416,24.206038 40.201631,21.48466 42.2,20 c 4.323612,-3.21218 10.509823,-3.413884 11.450777,-3.393944 -0.02359,-4.70499 -3.397545,-5.16077 -5.870091,-5.10151 z m 10.897358,0 c 0,0 0.221661,10.30787 0.235437,13.39635 0.05234,11.73973 0.159011,33.19982 -0.02374,49.89802 -0.0354,3.2344 -0.211695,9.7011 -0.211695,9.7011 H 67.5 c 0,0 -0.176301,-6.0281 -0.211695,-9.0429 -0.197917,-16.8565 -0.0825,-38.58753 -0.02572,-50.47223 C 67.277595,21.844486 67.5,11.504546 67.5,11.504546 Z" />
</svg>
