<?xml version="1.0" encoding="UTF-8" standalone="no"?>
<svg
   xmlns:dc="http://purl.org/dc/elements/1.1/"
   xmlns:cc="http://creativecommons.org/ns#"
   xmlns:rdf="http://www.w3.org/1999/02/22-rdf-syntax-ns#"
   xmlns:svg="http://www.w3.org/2000/svg"
   xmlns="http://www.w3.org/2000/svg"
   version="1.1"
   id="Layer_1"
   x="0px"
   y="0px"
   width="115"
   height="32"
   viewBox="-0.5 -0.101 115 32"
   enable-background="new -0.5 -0.101 88 31"
   xml:space="preserve"><metadata
     id="metadata51"><rdf:RDF><cc:Work
         rdf:about=""><dc:format>image/svg+xml</dc:format><dc:type
           rdf:resource="http://purl.org/dc/dcmitype/StillImage" /><dc:title></dc:title></cc:Work></rdf:RDF></metadata><defs
     id="defs49" /><path
     d="M 15.386812,-0.101 C 10.971459,-0.101 7.2487674,1.4436184 4.2144874,4.5481419 2.6796586,6.0902128 1.508276,7.8496689 0.6932384,9.8129226 -0.10274986,11.755796 -0.49999988,13.782248 -0.5,15.897673 c 0,2.133085 0.39725014,4.159538 1.1932384,6.084749 0.7959883,1.925212 1.949661,3.655014 3.4654404,5.198443 1.5348287,1.523049 3.2597883,2.696776 5.1742432,3.516045 1.933503,0.801605 3.950304,1.20209 6.05389,1.20209 2.104946,0 4.148727,-0.414665 6.120329,-1.233933 1.970241,-0.820626 3.727964,-1.996561 5.283202,-3.537275 1.498091,-1.464629 2.631843,-3.147661 3.388372,-5.052492 0.776939,-1.922495 1.161348,-3.984825 1.161348,-6.174975 0,-2.171128 -0.381752,-4.227237 -1.158691,-6.1510903 C 29.404434,7.8077203 28.265813,6.0906803 26.769083,4.5852928 23.642278,1.457672 19.841625,-0.101 15.386812,-0.101 Z M 27.73643,0.3235783 c 4.740552,3.5216299 7.827772,9.1620175 7.829132,15.5422497 -0.0014,5.804168 -2.557771,10.998406 -6.588058,14.544492 l 85.522496,0 0,-30.0867417 -86.76357,0 z m -12.283179,2.454599 c 3.600316,0 6.671611,1.2824834 9.229659,3.8530561 1.23276,1.2390903 2.178721,2.6549989 2.822312,4.2378296 0.643594,1.581472 0.970006,3.258221 0.970006,5.031262 0,3.677875 -1.252003,6.725526 -3.733854,9.16295 -1.289909,1.259472 -2.739377,2.226705 -4.350402,2.892446 -1.591977,0.664382 -3.230087,0.995107 -4.937721,0.995107 -1.725321,0 -3.376721,-0.324442 -4.951009,-0.973878 C 8.9293145,27.312568 7.5179235,26.356799 6.2661128,25.116347 5.0143024,23.859593 4.05108,22.44012 3.3693874,20.857287 2.7067442,19.256795 2.3648349,17.609639 2.3648349,15.895018 c 0,-1.73364 0.3419094,-3.392706 1.0045525,-4.975535 C 4.05108,9.3189878 5.0156631,7.88183 6.2661128,6.6046963 8.7479641,4.055863 11.814836,2.7781773 15.453251,2.7781773 Z m 68.022555,2.09636 c 0.473511,0 0.921743,0.067166 1.336746,0.2016743 0.419084,0.1385829 0.792141,0.3388572 1.124142,0.5997177 0.330641,0.2595029 0.602115,0.5827784 0.821183,0.9659178 0.214984,0.3844983 0.352114,0.8255303 0.409262,1.3241566 l -1.823078,0 C 85.311401,7.7445432 85.240377,7.5455638 85.128801,7.3689386 85.017228,7.1895969 84.876269,7.0298059 84.708907,6.8939408 84.541546,6.7553591 84.351095,6.6515911 84.140192,6.5755065 83.927928,6.4980665 83.70984,6.4614036 83.475806,6.4614036 c -0.424527,0 -0.780979,0.082389 -1.078964,0.2467875 -0.295264,0.1630366 -0.536632,0.384944 -0.714879,0.6607498 -0.185051,0.2771657 -0.316865,0.5927977 -0.403948,0.9446892 -0.08436,0.3518914 -0.124905,0.7182388 -0.124905,1.0959451 0,0.36276 0.04055,0.7111058 0.124905,1.0534868 0.08436,0.341022 0.218897,0.647716 0.403948,0.920806 0.182329,0.273089 0.425057,0.489689 0.714879,0.655443 0.297985,0.163039 0.654437,0.246787 1.078964,0.246787 0.576921,0 1.023539,-0.176179 1.347375,-0.52807 0.321119,-0.353249 0.519158,-0.817017 0.592633,-1.395804 l 1.82042,0 c -0.04626,0.538027 -0.172102,1.020774 -0.369398,1.454184 -0.198657,0.432052 -0.465391,0.804875 -0.79195,1.109213 -0.323837,0.305696 -0.707205,0.536286 -1.14806,0.695248 -0.439494,0.16168 -0.924443,0.244133 -1.45102,0.244133 -0.651758,0 -1.243477,-0.114058 -1.764611,-0.342317 -0.523855,-0.229613 -0.964243,-0.541168 -1.323458,-0.944688 -0.360575,-0.400802 -0.637364,-0.873635 -0.826497,-1.41438 -0.193214,-0.542102 -0.287017,-1.126406 -0.287013,-1.7513892 0,-0.6426423 0.09379,-1.2382846 0.287013,-1.7885395 0.191855,-0.548896 0.468644,-1.0293064 0.826497,-1.4382606 0.359215,-0.4103144 0.799603,-0.7269224 1.323458,-0.9606103 0.522496,-0.2336892 1.108771,-0.3502789 1.764611,-0.3502778 z m -42.632358,0.2016743 3.8561,0 c 0.53338,0 0.990499,0.078629 1.363321,0.2335189 0.375543,0.1576035 0.680099,0.36552 0.916853,0.6209475 0.235397,0.2567851 0.40937,0.5495531 0.518223,0.8783474 0.10749,0.3287944 0.159452,0.6724058 0.159452,1.0242972 0,0.3437394 -0.05196,0.6821074 -0.159452,1.016336 -0.108859,0.3315109 -0.282826,0.6282286 -0.518223,0.8836561 -0.236754,0.2567851 -0.53995,0.4647013 -0.916853,0.6209463 -0.372822,0.154887 -0.829941,0.233519 -1.363321,0.233519 l -1.974557,0 0,3.080851 -1.881543,0 0,-8.5924194 z m 8.435052,0 1.878885,0 0,5.3443904 c 0,0.232329 0.02167,0.460391 0.06112,0.687286 0.03946,0.224179 0.124564,0.420503 0.252467,0.594412 0.127902,0.171189 0.306936,0.313233 0.534167,0.421924 0.227231,0.110058 0.531849,0.161871 0.914196,0.161871 0.670807,0 1.134091,-0.149493 1.389896,-0.451114 0.255805,-0.301621 0.382687,-0.770441 0.382687,-1.411726 l 0,-5.3470434 1.881543,0 0,5.3443904 c -0.0014,1.161648 -0.322328,2.026027 -0.970005,2.592585 -0.647675,0.566559 -1.542525,0.84916 -2.684121,0.84916 -1.157926,0 -2.054008,-0.282728 -2.689438,-0.843853 -0.634066,-0.559766 -0.951398,-1.428093 -0.951398,-2.597892 l 0,-5.3443904 z m 9.529962,0 4.031496,0 c 0.4082,0 0.778789,0.035429 1.113513,0.1088001 0.332002,0.073371 0.621568,0.1911885 0.861044,0.3555851 0.240838,0.1643966 0.424741,0.3837132 0.558086,0.6554445 0.130624,0.2730892 0.196658,0.6102263 0.196658,1.0110287 0,0.4320514 -0.09639,0.7946412 -0.29233,1.0826766 -0.198657,0.2880343 -0.48531,0.527752 -0.869018,0.7111692 0.526577,0.1521691 0.920129,0.4196766 1.177294,0.7987405 0.257165,0.3817817 0.388002,0.8432137 0.388002,1.3798827 0,0.43341 -0.08504,0.808568 -0.255125,1.125135 -0.167362,0.315206 -0.39336,0.573776 -0.675017,0.774856 -0.284379,0.201081 -0.605347,0.350702 -0.970005,0.445808 -0.366017,0.09511 -0.73648,0.140643 -1.118826,0.140643 l -4.145772,0 0,-8.5897682 z m 9.051603,0 1.881541,0 0,7.0055554 4.167033,0 0,1.586864 -6.048574,0 0,-8.5924194 z m 7.627156,0 1.881544,0 0,8.5924194 -1.881544,0 0,-8.5924194 z m -32.76223,1.4674526 0,2.5766641 1.458993,0 c 0.214985,0 0.42457,-0.016515 0.621865,-0.047759 0.200018,-0.031246 0.376458,-0.093361 0.528853,-0.1857519 0.152393,-0.092389 0.274215,-0.2242641 0.366741,-0.3927372 0.09253,-0.1684732 0.135535,-0.3890206 0.135535,-0.6607509 0,-0.2717302 -0.04301,-0.4935725 -0.135535,-0.6634046 C 45.610282,7.0014506 45.487095,6.8695123 45.334702,6.7798414 45.183668,6.6874528 45.007228,6.6266963 44.805849,6.5940883 44.607192,6.5614826 44.398969,6.5436654 44.183984,6.5436654 l -1.458993,0 z m 17.970329,0 0,2.0114424 1.90546,0 c 0.334723,0 0.610151,-0.079794 0.826497,-0.2414788 C 63.642261,8.1533066 63.74884,7.8935706 63.74884,7.5308095 63.74884,7.3310871 63.71465,7.16495 63.642534,7.0372357 63.570414,6.9108814 63.475262,6.8093866 63.355524,6.7373774 63.233064,6.6653655 63.098783,6.6132311 62.940945,6.5887751 62.78447,6.5588899 62.624633,6.543667 62.457272,6.543667 l -1.761952,0 z M 15.42136,6.6896128 c -5.254883,0 -6.5774272,4.9853022 -6.5774272,9.2107122 0,4.22677 1.3211832,9.208062 6.5774272,9.208062 5.256244,0 6.577428,-4.984008 6.577428,-9.208062 0,-4.226769 -1.321184,-9.2107122 -6.577428,-9.2107122 z m 45.279275,3.1551533 0,2.3590679 2.011762,0 0,-0.0026 c 0.18269,-1.89e-4 0.357012,-0.01792 0.523536,-0.05307 0.167362,-0.03533 0.313187,-0.09758 0.44381,-0.180446 0.125181,-0.08424 0.229359,-0.199595 0.308275,-0.344971 0.0762,-0.1413 0.111619,-0.327774 0.111619,-0.551953 0,-0.440203 -0.123182,-0.757195 -0.366742,-0.944689 C 63.485254,9.9385787 63.156442,9.844789 62.749604,9.844789 l -2.048968,0 z M 15.42136,10.160547 c 0.213624,0 0.406286,0.03335 0.589976,0.08226 0.378265,0.326077 0.565269,0.777298 0.201973,1.409072 l -3.499988,6.46687 c -0.107491,-0.819266 -0.124905,-1.621976 -0.124905,-2.218426 0,-1.861354 0.129306,-5.739778 2.832944,-5.739778 z m 2.620341,2.980015 c 0.18641,0.993174 0.209946,2.027514 0.209946,2.757111 0,1.861353 -0.128009,5.737124 -2.830287,5.737124 -0.212263,0 -0.410304,-0.02286 -0.592633,-0.06634 -0.03402,-0.01358 -0.06431,-0.02635 -0.09833,-0.03449 -0.05443,-0.01631 -0.115721,-0.03264 -0.167426,-0.05572 -0.601417,-0.25544 -0.98017,-0.721013 -0.433184,-1.547073 l 3.911914,-6.790612 z m 36.100109,3.762832 c 0.662643,0 1.25281,0.115295 1.772584,0.347625 0.518413,0.23233 0.957567,0.551591 1.318142,0.963264 0.359215,0.411671 0.634707,0.887943 0.823841,1.440915 0.194574,0.548897 0.289671,1.145959 0.289671,1.785886 0,0.62498 -0.09509,1.212004 -0.289671,1.75139 -0.193217,0.539385 -0.468707,1.009562 -0.823841,1.411724 -0.361936,0.400803 -0.799729,0.713719 -1.318142,0.94469 -0.519774,0.225536 -1.108581,0.342317 -1.772584,0.342317 -0.65448,0 -1.243413,-0.116781 -1.767268,-0.342317 -0.522496,-0.230971 -0.962883,-0.543887 -1.323458,-0.94469 -0.357855,-0.402162 -0.633347,-0.875057 -0.823841,-1.411724 -0.190492,-0.539386 -0.287013,-1.12641 -0.287013,-1.75139 0,-0.639927 0.09516,-1.235632 0.287013,-1.785886 0.191855,-0.547536 0.467347,-1.029244 0.823841,-1.440915 0.360575,-0.411673 0.800962,-0.730934 1.323458,-0.963264 0.523855,-0.23233 1.111428,-0.347625 1.767268,-0.347625 z m -13.298362,0.209636 3.688675,0 c 0.551068,0 1.063847,0.08344 1.538719,0.260056 0.476232,0.176624 0.886133,0.441477 1.233101,0.796085 0.34697,0.35325 0.619931,0.79564 0.815867,1.324155 0.195936,0.531235 0.292331,1.153626 0.292331,1.862842 0,0.629057 -0.07998,1.206952 -0.239179,1.735467 -0.160559,0.531235 -0.400375,0.98736 -0.722854,1.374576 -0.323837,0.381782 -0.727444,0.684719 -1.21184,0.907538 -0.481675,0.217384 -1.050306,0.329048 -1.706145,0.329048 l -3.688675,0 0,-8.589767 z m 19.381486,0 2.644258,0 2.001133,5.906959 0.02658,0 1.897488,-5.906959 2.641601,0 0,8.589767 -1.761953,0 0,-6.087403 -0.02658,0 -2.094147,6.087403 -1.448363,0 -2.094146,-6.029024 -0.02658,0 0,6.029024 -1.759295,0 0,-8.589767 z m 13.877706,0 1.926721,0 3.197028,8.589767 -1.950638,0 -0.648441,-1.913259 -3.197028,0 -0.669703,1.913259 -1.892173,0 3.234234,-8.589767 z m 6.553509,0 1.881543,0 0,8.589767 -1.881543,0 0,-8.589767 z m 4.172349,0 1.868255,0 3.569083,5.763663 0.02392,0 0,-5.763663 1.761952,0 0,8.589767 -1.884199,0 -3.550483,-5.753046 -0.02923,0 0,5.753046 -1.759295,0 0,-8.589767 z m -30.689346,1.379883 c -0.423166,0 -0.77968,0.08369 -1.076305,0.24944 -0.293903,0.163039 -0.535209,0.385007 -0.717538,0.658097 -0.18369,0.277165 -0.316929,0.595452 -0.401289,0.947344 -0.08436,0.35189 -0.127563,0.714225 -0.127563,1.09329 0.0014,0.361401 0.04456,0.713824 0.127563,1.053488 0.08436,0.34238 0.217599,0.65037 0.401289,0.923459 0.183689,0.27173 0.424995,0.48833 0.717538,0.655444 0.296625,0.164397 0.653139,0.246788 1.076305,0.246788 0.424528,0 0.785061,-0.08238 1.078964,-0.246788 0.296625,-0.164397 0.533848,-0.382355 0.717538,-0.655444 0.182329,-0.271732 0.316865,-0.581079 0.403948,-0.923459 0.08436,-0.339664 0.124905,-0.692087 0.124905,-1.053488 0,-0.374989 -0.04055,-0.7414 -0.124905,-1.09329 -0.08436,-0.355968 -0.221619,-0.670179 -0.403948,-0.947344 -0.18505,-0.27309 -0.422273,-0.495058 -0.717538,-0.658097 -0.293903,-0.164398 -0.654436,-0.24944 -1.078964,-0.24944 z m -11.414161,0.206981 0,5.416038 1.676911,0 c 0.270772,0 0.533486,-0.04429 0.789291,-0.135333 0.255805,-0.08424 0.481611,-0.23405 0.68299,-0.437848 0.198658,-0.205157 0.35862,-0.47124 0.478358,-0.801395 0.11974,-0.327434 0.180714,-0.729212 0.180715,-1.204741 0,-0.430694 -0.04321,-0.823727 -0.127563,-1.172901 -0.08436,-0.347815 -0.218706,-0.649712 -0.41192,-0.89427 -0.191854,-0.248633 -0.443024,-0.440033 -0.760058,-0.573181 -0.314314,-0.133149 -0.705335,-0.196369 -1.169322,-0.196369 l -1.339402,0 z m 32.310448,0.528072 -1.110854,3.155154 2.213735,0 -1.078963,-3.155154 -0.02392,0 z"
     id="path11"
     style="fill:#ffffff" /></svg>