<?xml version="1.0" encoding="UTF-8" standalone="no"?>
<svg
   xmlns:dc="http://purl.org/dc/elements/1.1/"
   xmlns:cc="http://creativecommons.org/ns#"
   xmlns:rdf="http://www.w3.org/1999/02/22-rdf-syntax-ns#"
   xmlns:svg="http://www.w3.org/2000/svg"
   xmlns="http://www.w3.org/2000/svg"
   xmlns:sodipodi="http://sodipodi.sourceforge.net/DTD/sodipodi-0.dtd"
   xmlns:inkscape="http://www.inkscape.org/namespaces/inkscape"
   version="1.1"
   id="Layer_1"
   x="0px"
   y="0px"
   width="200"
   height="28"
   viewBox="-0.5 -0.101 200 28"
   enable-background="new -0.5 -0.101 88 31"
   xml:space="preserve"
   inkscape:version="0.91 r13725"
   sodipodi:docname="cc-zero.svg"><sodipodi:namedview
     pagecolor="#ffffff"
     bordercolor="#666666"
     borderopacity="1"
     objecttolerance="10"
     gridtolerance="10"
     guidetolerance="10"
     inkscape:pageopacity="0"
     inkscape:pageshadow="2"
     inkscape:window-width="1880"
     inkscape:window-height="1055"
     id="namedview3413"
     showgrid="false"
     inkscape:zoom="5.3309703"
     inkscape:cx="126.77114"
     inkscape:cy="-8.4354322"
     inkscape:window-x="40"
     inkscape:window-y="0"
     inkscape:window-maximized="1"
     inkscape:current-layer="Layer_1" /><metadata
     id="metadata51"><rdf:RDF><cc:Work
         rdf:about=""><dc:format>image/svg+xml</dc:format><dc:type
           rdf:resource="http://purl.org/dc/dcmitype/StillImage" /><dc:title></dc:title></cc:Work></rdf:RDF></metadata><defs
     id="defs49" /><path
     inkscape:connector-curvature="0"
     d="m 99.770395,-0.101 c -3.863424,0 -7.120787,1.3515408 -9.775775,4.0679994 -1.342983,1.3493125 -2.367951,2.8888367 -3.0811,4.6066828 -0.696491,1.7000148 -1.044085,3.4731608 -1.044085,5.3241538 0,1.866453 0.347594,3.639597 1.044085,5.324156 0.696489,1.684568 1.705955,3.198142 3.032259,4.548644 1.342973,1.332669 2.852313,2.359674 4.527462,3.076535 1.691816,0.701409 3.456516,1.051829 5.297154,1.051829 1.841815,0 3.630135,-0.362828 5.355295,-1.079689 1.72396,-0.718051 3.26195,-1.74699 4.6228,-3.09512 1.31082,-1.281551 2.30285,-2.754204 2.96481,-4.420929 0.67982,-1.682179 1.01618,-3.486718 1.01618,-5.403099 0,-1.89974 -0.33403,-3.698835 -1.01385,-5.3822068 -0.67981,-1.698826 -1.67611,-3.2012356 -2.98574,-4.5184494 C 106.99393,1.2628381 103.66835,-0.101 99.770395,-0.101 Z m 10.805925,0.83705039 c 4.14798,3.08142651 6.8493,8.01676641 6.85049,13.59947061 -8.8e-4,5.078648 -2.23805,9.623609 -5.76456,12.726429 l 87.83775,0 0,-26.32589961 z M 99.828525,2.41828 c 3.150285,0 5.837655,1.1221736 8.075955,3.3714244 1.07866,1.0842048 1.90638,2.3231248 2.46953,3.7081016 0.56313,1.383788 0.84876,2.850944 0.84876,4.402357 0,3.218137 -1.09552,5.88483 -3.26713,8.017581 -1.12867,1.102037 -2.39695,1.948363 -3.8066,2.530886 -1.39298,0.581332 -2.82635,0.870721 -4.320515,0.870721 -1.509643,0 -2.95463,-0.283885 -4.332127,-0.852145 -1.376312,-0.581332 -2.611282,-1.417631 -3.706614,-2.503025 -1.095341,-1.099665 -1.93816,-2.341701 -2.534635,-3.726678 -0.579814,-1.400429 -0.878994,-2.841694 -0.878994,-4.341986 0,-1.516935 0.29918,-2.968618 0.878994,-4.353593 0.596475,-1.4004337 1.440488,-2.6579468 2.534635,-3.7754394 2.171617,-2.2302291 4.855137,-3.3482045 8.038741,-3.3482046 z m 59.519735,2.2998597 c 0.41433,0 0.80654,0.058774 1.16966,0.1764648 0.36669,0.1212603 0.69312,0.296501 0.98362,0.5247535 0.28931,0.2270651 0.52685,0.5099316 0.71854,0.8451783 0.18812,0.3364357 0.3081,0.7223387 0.3581,1.1586375 l -1.59518,0 c -0.0286,-0.1937781 -0.0907,-0.367885 -0.18837,-0.5224329 -0.0976,-0.1569234 -0.22095,-0.2967405 -0.3674,-0.4156224 -0.14644,-0.1212592 -0.31308,-0.2120562 -0.49762,-0.2786306 -0.18574,-0.06776 -0.37657,-0.09984 -0.58135,-0.09984 -0.37146,0 -0.68334,0.072091 -0.94408,0.2159395 -0.25836,0.1426573 -0.46955,0.3368261 -0.62552,0.5781562 -0.16193,0.2425194 -0.27727,0.5186972 -0.35347,0.8266032 -0.0739,0.3079042 -0.10928,0.6284592 -0.10928,0.9589521 0,0.317415 0.0354,0.6222171 0.10928,0.921801 0.0738,0.298394 0.19154,0.5667521 0.35347,0.8057051 0.15954,0.238954 0.37192,0.428478 0.62552,0.573514 0.26074,0.142659 0.57263,0.215938 0.94408,0.215938 0.50481,0 0.8956,-0.154156 1.17896,-0.462061 0.28098,-0.309093 0.45426,-0.71489 0.51855,-1.221329 l 1.59287,0 c -0.0405,0.4707746 -0.15059,0.893177 -0.32323,1.272411 -0.17382,0.378046 -0.40722,0.704266 -0.69296,0.970561 -0.28335,0.267484 -0.61879,0.469251 -1.00454,0.608342 -0.38455,0.14147 -0.80888,0.213617 -1.26965,0.213617 -0.57028,0 -1.08804,-0.0998 -1.54404,-0.299528 -0.45837,-0.200912 -0.8437,-0.473522 -1.15801,-0.826602 -0.3155,-0.3507 -0.5577,-0.76443 -0.72319,-1.237583 -0.16907,-0.4743395 -0.25115,-0.9856052 -0.25114,-1.5324651 0,-0.562313 0.0821,-1.0834991 0.25114,-1.5649726 0.16787,-0.480284 0.41006,-0.9006428 0.72319,-1.2584776 0.31432,-0.3590256 0.69964,-0.6360576 1.15801,-0.8405346 0.45719,-0.2044781 0.97018,-0.3064944 1.54404,-0.3064954 z m -37.30331,0.1764648 3.37409,0 c 0.4667,0 0.86668,0.068801 1.1929,0.2043293 0.3286,0.1379035 0.59509,0.3198301 0.80225,0.5433296 0.20597,0.2246868 0.35819,0.4808589 0.45344,0.7685536 0.094,0.2876957 0.13953,0.5883553 0.13953,0.8962597 0,0.300773 -0.0455,0.5968451 -0.13953,0.8892941 -0.0952,0.2900721 -0.24747,0.549701 -0.45344,0.7732 -0.20716,0.2246871 -0.47246,0.4066141 -0.80225,0.5433281 -0.32622,0.1355259 -0.74227,0.325752 -1.1929,0.204329 l -1.72774,0 0,2.6957451 -1.64635,0 z m 7.38067,0 1.64402,0 0,4.6763422 c 0,0.2032882 0.019,0.4028429 0.0535,0.6013763 0.0346,0.196157 0.109,0.36794 0.22091,0.520111 0.11192,0.14979 0.26858,0.274079 0.4674,0.369183 0.19884,0.0963 0.46537,0.141637 0.79992,0.141637 0.58697,0 0.99233,-0.130806 1.21616,-0.394725 0.22383,-0.263918 0.33485,-0.674136 0.33485,-1.2352602 l 0,-4.6786643 1.64635,0 0,4.6763423 c -8.7e-4,1.0164432 -0.28204,1.7727742 -0.84876,2.2685132 -0.56671,0.495739 -1.3497,0.743015 -2.3486,0.743015 -1.01318,0 -1.79724,-0.247387 -2.35325,-0.738373 -0.55481,-0.489794 -0.83248,-1.24958 -0.83248,-2.2731552 l 0,-4.6763422 z m 8.33871,0 3.52757,0 c 0.35717,0 0.68144,0.031001 0.97432,0.095201 0.2905,0.064199 0.54387,0.1672895 0.75341,0.3111369 0.21073,0.1438464 0.37165,0.3357489 0.48833,0.5735135 0.11429,0.2389529 0.17207,0.5339478 0.17207,0.8846504 0,0.3780447 -0.0844,0.6953113 -0.25578,0.9473413 -0.17383,0.2520311 -0.42465,0.461783 -0.76039,0.6222741 0.46075,0.1331479 0.80511,0.367217 1.03012,0.698898 0.22503,0.3340589 0.33951,0.737812 0.33951,1.2073983 0,0.379233 -0.0744,0.707498 -0.22324,0.984493 -0.14644,0.275805 -0.34419,0.502054 -0.59064,0.677999 -0.24883,0.175946 -0.52967,0.306864 -0.84875,0.390082 -0.32027,0.08322 -0.64714,0.165648 -0.97898,0.123062 l -3.62755,0 z m 7.92015,0 1.64636,0 0,6.1298625 3.64616,0 0,1.388506 -5.29251,0 0,-7.5183685 z m 6.67377,0 1.64635,0 0,7.5183685 -1.64635,0 z m -28.66695,1.2840216 0,2.2545818 1.27661,0 c 0.18812,0 0.3715,-0.01445 0.54414,-0.04179 0.17503,-0.02734 0.32941,-0.08169 0.46274,-0.162533 0.13334,-0.08084 0.23995,-0.196231 0.3209,-0.3436451 0.0809,-0.1474141 0.1186,-0.340394 0.1186,-0.5781581 0,-0.2377633 -0.0376,-0.4318749 -0.1186,-0.5804779 -0.0798,-0.1474157 -0.18756,-0.2628614 -0.3209,-0.3413236 -0.13215,-0.080841 -0.28653,-0.1340018 -0.46274,-0.1625338 -0.17382,-0.028534 -0.36741,0.020334 -0.54414,-0.044117 z m 15.72404,0 0,1.7600116 1.66727,0 c 0.29288,0 0.53389,-0.06982 0.72319,-0.2112929 0.18811,-0.140282 0.28137,-0.3675511 0.28137,-0.6849667 0,-0.1747568 -0.0299,-0.3201267 -0.093,-0.4318763 -0.0631,-0.1105607 -0.14637,-0.1993688 -0.25114,-0.2623767 -0.10715,-0.063009 -0.22465,-0.1086277 -0.36276,-0.1300267 -0.13691,-0.026154 -0.28302,0.00286 -0.42321,-0.039471 l -1.5417,0 z M 99.800615,5.8407869 c -4.598002,0 -5.755233,4.3621401 -5.755233,8.0593761 0,3.698424 1.156027,8.057053 5.755233,8.057053 4.599215,0 5.755255,-4.361009 5.755255,-8.057053 0,-3.698426 -1.15604,-8.0593761 -5.755255,-8.0593761 z m 39.619365,3.2263039 0,2.0641852 1.7603,0 0,-0.0023 c 0.15987,-1.66e-4 0.31239,-0.01568 0.45809,-0.04644 0.14645,-0.03091 0.27405,-0.08538 0.38833,-0.157889 0.10954,-0.07371 0.20069,-0.174646 0.26975,-0.30185 0.0667,-0.123638 0.0977,-0.286803 0.0977,-0.48296 0,-0.3851773 -0.10779,-0.6625452 -0.32091,-0.8266032 -0.21668,-0.164085 -0.51582,-0.1566791 -0.86038,-0.2461509 l -1.79285,0 z M 99.800615,8.8778542 c 0.18693,0 0.355505,0.02918 0.516235,0.07198 0.33097,0.2853173 0.49461,0.6801362 0.17672,1.2329378 l -3.062484,5.65851 c -0.0941,-0.716861 -0.109284,-1.419232 -0.109284,-1.941127 0,-1.628679 0.113139,-5.0223007 2.478813,-5.0223008 z m 2.292815,2.6075138 c 0.16311,0.869027 0.1837,1.774075 0.1837,2.412468 0,1.62869 -0.112,5.019988 -2.476515,5.019988 -0.18572,0 -0.359008,-0.02004 -0.518533,-0.05801 -0.02977,-0.0119 -0.05628,-0.02301 -0.08605,-0.03019 -0.0476,-0.01426 -0.101267,-0.02853 -0.146496,-0.04874 C 98.523285,18.557374 98.191886,18.15 98.67049,17.427198 l 3.42293,-5.941789 z m 31.58759,3.758026 c 0.57981,0 1.0962,0.100878 1.551,0.304168 0.45362,0.203289 0.83788,0.48264 1.15338,0.842852 0.31431,0.36022 0.55537,0.776957 0.72086,1.260805 0.17025,0.480288 0.25347,1.002716 0.25347,1.562653 0,0.546859 -0.0832,1.0605 -0.25347,1.532467 -0.16906,0.471958 -0.41012,0.883366 -0.72086,1.235256 -0.31669,0.3507 -0.69976,0.624504 -1.15338,0.826604 -0.4548,0.197347 -0.97,0.29953 -1.551,0.29953 -0.57267,0 -1.08799,-0.102183 -1.54637,-0.29953 -0.45718,-0.2021 -0.84252,-0.475904 -1.15801,-0.826604 -0.31313,-0.35189 -0.55419,-0.765678 -0.72087,-1.235256 -0.16667,-0.471967 -0.25114,-0.985608 -0.25114,-1.532467 0,-0.559937 0.0833,-1.081184 0.25114,-1.562653 0.16787,-0.479097 0.40893,-0.900585 0.72087,-1.260805 0.31549,-0.360212 0.70083,-0.639563 1.15801,-0.842852 0.45839,-0.20329 0.97251,-0.304168 1.54637,-0.304168 z m -11.63607,0.183427 3.2276,0 c 0.48218,0 0.93085,0.07297 1.34637,0.227551 0.41671,0.154544 0.77537,0.386287 1.07896,0.69657 0.3036,0.309095 0.54244,0.696186 0.71388,1.15864 0.17144,0.464827 0.2558,1.009419 0.2558,1.629986 0,0.550428 -0.07,1.056081 -0.20929,1.518537 -0.14049,0.464826 -0.35032,0.86394 -0.63249,1.202747 -0.28336,0.334059 -0.63652,0.599131 -1.06036,0.794099 -0.42147,0.190208 -0.9249,0.369843 -1.49288,0.287918 l -3.22759,0 z m 16.9588,0 2.31372,0 1.75099,5.16859 0.0233,0 1.6603,-5.16859 2.3114,0 0,7.516048 -1.54171,0 0,-5.326474 -0.0233,0 -1.83238,5.326474 -1.26732,0 -1.83238,-5.275401 -0.0233,0 0,5.275401 -1.53938,0 0,-7.516048 z m 12.14299,0 1.68588,0 2.7974,7.516048 -1.7068,0 -0.56738,-1.674102 -2.79741,0 -0.58599,1.674102 -1.65566,0 z m 5.73432,0 1.64635,0 0,7.516048 -1.64635,0 z m 3.65081,0 1.63472,0 3.12295,5.043201 0.0209,0 0,-5.043201 1.54171,0 0,7.516048 -1.64867,0 -3.10668,-5.033918 -0.0256,0 0,5.033918 -1.53937,0 0,-7.516048 z m -26.85318,1.207395 c -0.37028,0 -0.68222,0.07324 -0.94176,0.21826 -0.25718,0.14266 -0.46831,0.336883 -0.62785,0.575836 -0.16073,0.242525 -0.27732,0.52102 -0.35112,0.828933 -0.0738,0.307903 -0.11163,0.624942 -0.11163,0.956627 8.8e-4,0.316226 0.039,0.624594 0.11163,0.921796 0.0739,0.299583 0.19039,0.569074 0.35112,0.808028 0.16073,0.237763 0.37186,0.427289 0.62785,0.573519 0.25954,0.143841 0.57148,0.215932 0.94176,0.215932 0.37146,0 0.68693,-0.0721 0.94409,-0.215932 0.25955,-0.14385 0.46712,-0.334566 0.62785,-0.573519 0.15953,-0.237764 0.27726,-0.508445 0.35345,-0.808028 0.0738,-0.297202 0.1093,-0.60557 0.1093,-0.921796 0,-0.328115 -0.0354,-0.648724 -0.1093,-0.956627 -0.0738,-0.311474 -0.19392,-0.586408 -0.35345,-0.828933 -0.16191,-0.238953 -0.36949,-0.433176 -0.62785,-0.575836 -0.25716,-0.143842 -0.57263,-0.21826 -0.94409,-0.21826 z m -9.98739,0.181116 0,4.739026 1.46729,0 c 0.23693,0 0.46681,-0.03876 0.69063,-0.118413 0.22384,-0.07367 0.42141,-0.204794 0.59763,-0.383119 0.17382,-0.179507 0.31379,-0.412335 0.41856,-0.701217 0.10478,-0.28651 0.15811,-0.638058 0.15811,-1.054147 0,-0.376863 -0.0378,-0.720764 -0.1116,-1.026287 -0.0738,-0.304343 -0.19137,-0.568506 -0.36043,-0.782487 -0.16787,-0.21756 -0.38764,-0.385036 -0.66505,-0.501541 -0.27502,-0.116498 -0.64585,-0.02193 -1.02316,-0.171815 l -1.17197,0 z m 28.27164,0.46206 -0.972,2.760757 1.93702,0 -0.94409,-2.760757 -0.0209,0 z"
     id="path11"
     style="fill:#ffffff"
     sodipodi:nodetypes="sccssccscccsccsccccccsccsccscccsccssccccccccscccscccsccccccscccccccscscccscccsccccccscccssscccsscscccscccscccscccscccccccccccccccccscccscccscccscscccsccssssscccccccscsccscccsscssccccccscccscccscccscccscscccscccsccccccccccccccccccccccccccccccccccccccccccccccccsccsccccscccscccsccscccscccscccccccc" /><g
     style="font-style:normal;font-weight:normal;font-size:10px;line-height:104.99999523%;font-family:sans-serif;letter-spacing:0px;word-spacing:0px;fill:#ffffff;fill-opacity:1;stroke:none;stroke-width:1px;stroke-linecap:butt;stroke-linejoin:miter;stroke-opacity:1"
     id="text3447"
     transform="translate(-4.5,0)"><path
       d="m 15.339844,5.9390392 -1.337891,3.6279297 2.680664,0 -1.342773,-3.6279297 z m -0.556641,-0.9716797 1.118164,0 2.77832,7.2900395 -1.02539,0 -0.664063,-1.870118 -3.286132,0 -0.664063,1.870118 -1.040039,0 2.783203,-7.2900395 z"
       id="path4258"
       inkscape:connector-curvature="0"
       style="fill:#ffffff" /><path
       d="m 19.700195,4.6597424 0.898438,0 0,7.5976566 -0.898438,0 0,-7.5976566 z"
       id="path4260"
       inkscape:connector-curvature="0"
       style="fill:#ffffff" /><path
       d="m 22.473633,4.6597424 0.898437,0 0,7.5976566 -0.898437,0 0,-7.5976566 z"
       id="path4262"
       inkscape:connector-curvature="0"
       style="fill:#ffffff" /><path
       d="m 32.366211,6.9986095 0,0.8398438 q -0.380859,-0.2099609 -0.766602,-0.3125 -0.380859,-0.1074219 -0.771484,-0.1074219 -0.874023,0 -1.357422,0.5566406 -0.483398,0.5517579 -0.483398,1.5527344 0,1.0009766 0.483398,1.5576176 0.483399,0.551757 1.357422,0.551757 0.390625,0 0.771484,-0.102539 0.385743,-0.107422 0.766602,-0.317382 l 0,0.830078 q -0.375977,0.175781 -0.78125,0.263672 -0.400391,0.08789 -0.854492,0.08789 -1.235352,0 -1.962891,-0.776367 -0.727539,-0.776367 -0.727539,-2.0947266 0,-1.3378906 0.732422,-2.1044922 0.737305,-0.7666015 2.016601,-0.7666015 0.41504,0 0.810547,0.087891 0.395508,0.083008 0.766602,0.2539062 z"
       id="path4264"
       inkscape:connector-curvature="0"
       style="fill:#ffffff" /><path
       d="m 36.057617,7.4185314 q -0.722656,0 -1.142578,0.5664063 -0.419922,0.5615234 -0.419922,1.5429687 0,0.9814456 0.415039,1.5478516 0.419922,0.561523 1.147461,0.561523 0.717774,0 1.137695,-0.566406 0.419922,-0.566406 0.419922,-1.5429686 0,-0.9716797 -0.419922,-1.5380859 -0.419921,-0.5712891 -1.137695,-0.5712891 z m 0,-0.7617187 q 1.171875,0 1.84082,0.7617187 0.668946,0.7617188 0.668946,2.109375 0,1.3427736 -0.668946,2.1093746 -0.668945,0.761719 -1.84082,0.761719 -1.176758,0 -1.845703,-0.761719 -0.664062,-0.766601 -0.664062,-2.1093746 0,-1.3476562 0.664062,-2.109375 0.668945,-0.7617187 1.845703,-0.7617187 z"
       id="path4266"
       inkscape:connector-curvature="0"
       style="fill:#ffffff" /><path
       d="m 44.597656,8.9566174 0,3.3007816 -0.898437,0 0,-3.2714848 q 0,-0.7763672 -0.302735,-1.1621093 -0.302734,-0.3857422 -0.908203,-0.3857422 -0.727539,0 -1.147461,0.4638672 -0.419922,0.4638671 -0.419922,1.2646484 l 0,3.0908207 -0.90332,0 0,-5.4687504 0.90332,0 0,0.8496094 q 0.322266,-0.4931641 0.756836,-0.7373047 0.439453,-0.2441406 1.010743,-0.2441406 0.942382,0 1.425781,0.5859375 0.483398,0.5810547 0.483398,1.7138672 z"
       id="path4268"
       inkscape:connector-curvature="0"
       style="fill:#ffffff" /><path
       d="m 47.288086,5.2359142 0,1.5527344 1.850586,0 0,0.6982422 -1.850586,0 0,2.9687502 q 0,0.668945 0.180664,0.859375 0.185547,0.190429 0.74707,0.190429 l 0.922852,0 0,0.751954 -0.922852,0 q -1.040039,0 -1.435547,-0.385743 -0.395507,-0.390625 -0.395507,-1.416015 l 0,-2.9687502 -0.65918,0 0,-0.6982422 0.65918,0 0,-1.5527344 0.90332,0 z"
       id="path4270"
       inkscape:connector-curvature="0"
       style="fill:#ffffff" /><path
       d="m 55.00293,9.2984142 0,0.4394532 -4.13086,0 q 0.05859,0.9277346 0.556641,1.4160156 0.50293,0.483398 1.396484,0.483398 0.517578,0 1.000977,-0.126953 0.488281,-0.126953 0.966797,-0.380859 l 0,0.849609 q -0.483399,0.205078 -0.991211,0.3125 -0.507813,0.107422 -1.030274,0.107422 -1.308593,0 -2.075195,-0.761719 -0.761719,-0.761718 -0.761719,-2.0605465 0,-1.3427734 0.722657,-2.1289062 0.727539,-0.7910156 1.958007,-0.7910156 1.103516,0 1.743164,0.7128906 0.644532,0.7080078 0.644532,1.9287109 z M 54.104492,9.0347424 Q 54.094727,8.2974377 53.689453,7.8579845 53.289062,7.4185314 52.625,7.4185314 q -0.751953,0 -1.206055,0.4248047 -0.449218,0.4248047 -0.517578,1.1962891 l 3.203125,-0.00488 z"
       id="path4272"
       inkscape:connector-curvature="0"
       style="fill:#ffffff" /><path
       d="m 61.023437,8.9566174 0,3.3007816 -0.898437,0 0,-3.2714848 q 0,-0.7763672 -0.302734,-1.1621093 -0.302735,-0.3857422 -0.908204,-0.3857422 -0.727539,0 -1.14746,0.4638672 Q 57.34668,8.365797 57.34668,9.1665783 l 0,3.0908207 -0.903321,0 0,-5.4687504 0.903321,0 0,0.8496094 q 0.322265,-0.4931641 0.756836,-0.7373047 0.439453,-0.2441406 1.010742,-0.2441406 0.942383,0 1.425781,0.5859375 0.483398,0.5810547 0.483398,1.7138672 z"
       id="path4274"
       inkscape:connector-curvature="0"
       style="fill:#ffffff" /><path
       d="m 63.713867,5.2359142 0,1.5527344 1.850586,0 0,0.6982422 -1.850586,0 0,2.9687502 q 0,0.668945 0.180664,0.859375 0.185547,0.190429 0.747071,0.190429 l 0.922851,0 0,0.751954 -0.922851,0 q -1.04004,0 -1.435547,-0.385743 -0.395508,-0.390625 -0.395508,-1.416015 l 0,-2.9687502 -0.65918,0 0,-0.6982422 0.65918,0 0,-1.5527344 0.90332,0 z"
       id="path4276"
       inkscape:connector-curvature="0"
       style="fill:#ffffff" /><path
       d="m 72.053711,7.4185314 q -0.722656,0 -1.142578,0.5664063 -0.419922,0.5615234 -0.419922,1.5429687 0,0.9814456 0.415039,1.5478516 0.419922,0.561523 1.147461,0.561523 0.717773,0 1.137695,-0.566406 0.419922,-0.566406 0.419922,-1.5429686 0,-0.9716797 -0.419922,-1.5380859 -0.419922,-0.5712891 -1.137695,-0.5712891 z m 0,-0.7617187 q 1.171875,0 1.84082,0.7617187 0.668946,0.7617188 0.668946,2.109375 0,1.3427736 -0.668946,2.1093746 -0.668945,0.761719 -1.84082,0.761719 -1.176758,0 -1.845703,-0.761719 -0.664063,-0.766601 -0.664063,-2.1093746 0,-1.3476562 0.664063,-2.109375 0.668945,-0.7617187 1.845703,-0.7617187 z"
       id="path4278"
       inkscape:connector-curvature="0"
       style="fill:#ffffff" /><path
       d="m 80.59375,8.9566174 0,3.3007816 -0.898438,0 0,-3.2714848 q 0,-0.7763672 -0.302734,-1.1621093 -0.302734,-0.3857422 -0.908203,-0.3857422 -0.727539,0 -1.147461,0.4638672 -0.419922,0.4638671 -0.419922,1.2646484 l 0,3.0908207 -0.90332,0 0,-5.4687504 0.90332,0 0,0.8496094 q 0.322266,-0.4931641 0.756836,-0.7373047 0.439453,-0.2441406 1.010742,-0.2441406 0.942383,0 1.425782,0.5859375 0.483398,0.5810547 0.483398,1.7138672 z"
       id="path4280"
       inkscape:connector-curvature="0"
       style="fill:#ffffff" /><path
       d="m 13.75293,15.735914 0,1.552734 1.850586,0 0,0.698242 -1.850586,0 0,2.96875 q 0,0.668946 0.180664,0.859375 0.185547,0.19043 0.74707,0.19043 l 0.922852,0 0,0.751953 -0.922852,0 q -1.040039,0 -1.435547,-0.385742 -0.395508,-0.390625 -0.395508,-1.416016 l 0,-2.96875 -0.659179,0 0,-0.698242 0.659179,0 0,-1.552734 0.903321,0 z"
       id="path4282"
       inkscape:connector-curvature="0"
       style="fill:#ffffff" /><path
       d="m 21.335937,19.456617 0,3.300781 -0.898437,0 0,-3.271484 q 0,-0.776367 -0.302734,-1.16211 -0.302735,-0.385742 -0.908204,-0.385742 -0.727539,0 -1.14746,0.463867 -0.419922,0.463868 -0.419922,1.264649 l 0,3.09082 -0.903321,0 0,-7.597656 0.903321,0 0,2.978516 q 0.322265,-0.493165 0.756836,-0.737305 0.439453,-0.244141 1.010742,-0.244141 0.942383,0 1.425781,0.585938 0.483398,0.581054 0.483398,1.713867 z"
       id="path4284"
       inkscape:connector-curvature="0"
       style="fill:#ffffff" /><path
       d="m 23.137695,17.288648 0.898438,0 0,5.46875 -0.898438,0 0,-5.46875 z m 0,-2.128906 0.898438,0 0,1.137695 -0.898438,0 0,-1.137695 z"
       id="path4286"
       inkscape:connector-curvature="0"
       style="fill:#ffffff" /><path
       d="m 29.397461,17.449781 0,0.849609 q -0.380859,-0.195312 -0.791016,-0.292968 -0.410156,-0.09766 -0.849609,-0.09766 -0.668945,0 -1.005859,0.205078 -0.332032,0.205079 -0.332032,0.615235 0,0.3125 0.239258,0.493164 0.239258,0.175781 0.961914,0.336914 l 0.307617,0.06836 q 0.957032,0.205078 1.357422,0.581055 0.405274,0.371094 0.405274,1.040039 0,0.761719 -0.605469,1.206055 -0.600586,0.444336 -1.655274,0.444336 -0.439453,0 -0.917968,-0.08789 -0.473633,-0.08301 -1.000977,-0.253906 l 0,-0.927735 q 0.498047,0.25879 0.981445,0.390625 0.483399,0.126954 0.957032,0.126954 0.634765,0 0.976562,-0.214844 0.341797,-0.219727 0.341797,-0.615235 0,-0.36621 -0.249023,-0.561523 -0.244141,-0.195312 -1.079102,-0.375977 l -0.3125,-0.07324 q -0.834961,-0.175781 -1.206055,-0.537109 -0.371093,-0.366211 -0.371093,-1.000977 0,-0.771484 0.546875,-1.191406 0.546875,-0.419922 1.552734,-0.419922 0.498047,0 0.9375,0.07324 0.439453,0.07324 0.810547,0.219727 z"
       id="path4288"
       inkscape:connector-curvature="0"
       style="fill:#ffffff" /><path
       d="m 33.787109,17.288648 0.898438,0 1.123047,4.267578 1.118164,-4.267578 1.05957,0 1.123047,4.267578 1.118164,-4.267578 0.898438,0 -1.430665,5.46875 -1.05957,0 -1.176758,-4.482422 -1.18164,4.482422 -1.059571,0 -1.430664,-5.46875 z"
       id="path4290"
       inkscape:connector-curvature="0"
       style="fill:#ffffff" /><path
       d="m 47.170898,19.798414 0,0.439453 -4.130859,0 q 0.05859,0.927734 0.556641,1.416016 0.502929,0.483398 1.396484,0.483398 0.517578,0 1.000977,-0.126953 0.488281,-0.126953 0.966796,-0.38086 l 0,0.84961 q -0.483398,0.205078 -0.99121,0.3125 -0.507813,0.107422 -1.030274,0.107422 -1.308594,0 -2.075195,-0.761719 -0.761719,-0.761719 -0.761719,-2.060547 0,-1.342773 0.722656,-2.128906 0.727539,-0.791016 1.958008,-0.791016 1.103516,0 1.743164,0.712891 0.644531,0.708008 0.644531,1.928711 z m -0.898437,-0.263672 q -0.0098,-0.737305 -0.415039,-1.176758 -0.400391,-0.439453 -1.064453,-0.439453 -0.751953,0 -1.206055,0.424805 -0.449219,0.424804 -0.517578,1.196289 l 3.203125,-0.0049 z"
       id="path4292"
       inkscape:connector-curvature="0"
       style="fill:#ffffff" /><path
       d="m 52.571289,20.027906 q 0,-0.991211 -0.410156,-1.552734 -0.405274,-0.566407 -1.118164,-0.566407 -0.712891,0 -1.123047,0.566407 -0.405274,0.561523 -0.405274,1.552734 0,0.991211 0.405274,1.557617 0.410156,0.561524 1.123047,0.561524 0.71289,0 1.118164,-0.561524 0.410156,-0.566406 0.410156,-1.557617 z m -3.056641,-1.90918 q 0.283204,-0.488281 0.712891,-0.722656 0.43457,-0.239258 1.035156,-0.239258 0.996094,0 1.616211,0.791016 0.625,0.791015 0.625,2.080078 0,1.289062 -0.625,2.080078 -0.620117,0.791016 -1.616211,0.791016 -0.600586,0 -1.035156,-0.234375 -0.429687,-0.239258 -0.712891,-0.727539 l 0,0.820312 -0.90332,0 0,-7.597656 0.90332,0 0,2.958984 z"
       id="path4294"
       inkscape:connector-curvature="0"
       style="fill:#ffffff" /><path
       d="m 58.479492,17.449781 0,0.849609 q -0.380859,-0.195312 -0.791015,-0.292968 -0.410157,-0.09766 -0.84961,-0.09766 -0.668945,0 -1.005859,0.205078 -0.332031,0.205079 -0.332031,0.615235 0,0.3125 0.239257,0.493164 0.239258,0.175781 0.961914,0.336914 l 0.307618,0.06836 q 0.957031,0.205078 1.357421,0.581055 0.405274,0.371094 0.405274,1.040039 0,0.761719 -0.605469,1.206055 -0.600586,0.444336 -1.655273,0.444336 -0.439453,0 -0.917969,-0.08789 -0.473633,-0.08301 -1.000977,-0.253906 l 0,-0.927735 q 0.498047,0.25879 0.981446,0.390625 0.483398,0.126954 0.957031,0.126954 0.634766,0 0.976562,-0.214844 0.341797,-0.219727 0.341797,-0.615235 0,-0.36621 -0.249023,-0.561523 -0.244141,-0.195312 -1.079102,-0.375977 l -0.3125,-0.07324 q -0.834961,-0.175781 -1.206054,-0.537109 -0.371094,-0.366211 -0.371094,-1.000977 0,-0.771484 0.546875,-1.191406 0.546875,-0.419922 1.552734,-0.419922 0.498047,0 0.9375,0.07324 0.439453,0.07324 0.810547,0.219727 z"
       id="path4296"
       inkscape:connector-curvature="0"
       style="fill:#ffffff" /><path
       d="m 60.208008,17.288648 0.898437,0 0,5.46875 -0.898437,0 0,-5.46875 z m 0,-2.128906 0.898437,0 0,1.137695 -0.898437,0 0,-1.137695 z"
       id="path4298"
       inkscape:connector-curvature="0"
       style="fill:#ffffff" /><path
       d="m 63.870117,15.735914 0,1.552734 1.850586,0 0,0.698242 -1.850586,0 0,2.96875 q 0,0.668946 0.180664,0.859375 0.185547,0.19043 0.747071,0.19043 l 0.922851,0 0,0.751953 -0.922851,0 q -1.04004,0 -1.435547,-0.385742 -0.395508,-0.390625 -0.395508,-1.416016 l 0,-2.96875 -0.65918,0 0,-0.698242 0.65918,0 0,-1.552734 0.90332,0 z"
       id="path4300"
       inkscape:connector-curvature="0"
       style="fill:#ffffff" /><path
       d="m 71.584961,19.798414 0,0.439453 -4.130859,0 q 0.05859,0.927734 0.55664,1.416016 0.50293,0.483398 1.396485,0.483398 0.517578,0 1.000976,-0.126953 0.488281,-0.126953 0.966797,-0.38086 l 0,0.84961 q -0.483398,0.205078 -0.991211,0.3125 -0.507812,0.107422 -1.030273,0.107422 -1.308594,0 -2.075196,-0.761719 -0.761718,-0.761719 -0.761718,-2.060547 0,-1.342773 0.722656,-2.128906 0.727539,-0.791016 1.958008,-0.791016 1.103515,0 1.743164,0.712891 0.644531,0.708008 0.644531,1.928711 z m -0.898438,-0.263672 q -0.0098,-0.737305 -0.415039,-1.176758 -0.40039,-0.439453 -1.064453,-0.439453 -0.751953,0 -1.206054,0.424805 -0.449219,0.424804 -0.517579,1.196289 l 3.203125,-0.0049 z"
       id="path4302"
       inkscape:connector-curvature="0"
       style="fill:#ffffff" /><path
       d="m 76.243164,17.288648 0.898438,0 0,5.46875 -0.898438,0 0,-5.46875 z m 0,-2.128906 0.898438,0 0,1.137695 -0.898438,0 0,-1.137695 z"
       id="path4304"
       inkscape:connector-curvature="0"
       style="fill:#ffffff" /><path
       d="m 82.50293,17.449781 0,0.849609 q -0.38086,-0.195312 -0.791016,-0.292968 -0.410156,-0.09766 -0.849609,-0.09766 -0.668946,0 -1.00586,0.205078 -0.332031,0.205079 -0.332031,0.615235 0,0.3125 0.239258,0.493164 0.239258,0.175781 0.961914,0.336914 l 0.307617,0.06836 q 0.957031,0.205078 1.357422,0.581055 0.405273,0.371094 0.405273,1.040039 0,0.761719 -0.605468,1.206055 -0.600586,0.444336 -1.655274,0.444336 -0.439453,0 -0.917969,-0.08789 -0.473632,-0.08301 -1.000976,-0.253906 l 0,-0.927735 q 0.498047,0.25879 0.981445,0.390625 0.483399,0.126954 0.957031,0.126954 0.634766,0 0.976563,-0.214844 0.341797,-0.219727 0.341797,-0.615235 0,-0.36621 -0.249024,-0.561523 -0.24414,-0.195312 -1.079101,-0.375977 l -0.3125,-0.07324 q -0.834961,-0.175781 -1.206055,-0.537109 -0.371094,-0.366211 -0.371094,-1.000977 0,-0.771484 0.546875,-1.191406 0.546875,-0.419922 1.552735,-0.419922 0.498047,0 0.9375,0.07324 0.439453,0.07324 0.810547,0.219727 z"
       id="path4306"
       inkscape:connector-curvature="0"
       style="fill:#ffffff" /></g></svg>