<?xml version="1.0" encoding="UTF-8" standalone="no"?>
<svg
   xmlns:dc="http://purl.org/dc/elements/1.1/"
   xmlns:cc="http://creativecommons.org/ns#"
   xmlns:rdf="http://www.w3.org/1999/02/22-rdf-syntax-ns#"
   xmlns:svg="http://www.w3.org/2000/svg"
   xmlns="http://www.w3.org/2000/svg"
   xml:space="preserve"
   enable-background="new -0.5 -0.101 88 31"
   viewBox="-0.5 -0.101 100 28"
   height="28"
   width="100"
   y="0px"
   x="0px"
   id="Layer_1"
   version="1.1"><metadata
     id="metadata51"><rdf:RDF><cc:Work
         rdf:about=""><dc:format>image/svg+xml</dc:format><dc:type
           rdf:resource="http://purl.org/dc/dcmitype/StillImage" /><dc:title></dc:title></cc:Work></rdf:RDF></metadata><defs
     id="defs49" /><path
     style="fill:#ffffff"
     id="path11"
     d="M 13.314619,-0.100999 C 9.4751819,-0.100999 6.2380585,1.250542 3.5995542,3.967 2.2649205,5.316312 1.2463269,6.855836 0.5375986,8.573683 -0.1545651,10.273697 -0.4999999,12.046843 -0.5,13.897839 c 0,1.86645 0.3454349,3.639596 1.0375986,5.324156 0.6921637,1.68456 1.6953574,3.198136 3.0134264,4.548637 1.3346336,1.332668 2.8345985,2.359679 4.4993419,3.076539 1.681307,0.701405 3.4350471,1.051829 5.2642521,1.051829 1.830388,0 3.607589,-0.362832 5.322025,-1.079691 1.713253,-0.718048 3.241708,-1.746992 4.594089,-3.095116 1.302688,-1.28155 2.288559,-2.754203 2.94641,-4.42093 0.675599,-1.682183 1.009868,-3.486722 1.009868,-5.403103 0,-1.899737 -0.331958,-3.698832 -1.007557,-5.382204 C 25.503855,6.819131 24.51375,5.316721 23.212246,3.999507 20.493285,1.262839 17.188369,-0.100999 13.314619,-0.100999 Z m 10.738798,0.371506 c 4.122219,3.081426 6.806758,8.016765 6.807941,13.599468 -0.0012,5.078647 -2.224149,9.623605 -5.728746,12.72643 l 74.367387,0 0,-26.325898 -75.446582,0 z M 13.372392,2.418281 c 3.13071,0 5.801401,1.122173 8.02579,3.371424 1.071966,1.084204 1.89454,2.323124 2.454185,3.708101 0.559647,1.383788 0.843483,2.850943 0.843483,4.402354 0,3.21814 -1.088698,5.884835 -3.246829,8.017581 -1.12166,1.102038 -2.382067,1.948367 -3.782959,2.53089 -1.384327,0.581334 -2.808771,0.870719 -4.29367,0.870719 -1.500279,0 -2.936279,-0.283887 -4.3052252,-0.852144 C 7.6994038,23.885872 6.4721073,23.049574 5.3835763,21.964179 4.2950455,20.864519 3.4574608,19.62248 2.8646847,18.237502 2.2884732,16.837071 1.9911608,15.39581 1.9911608,13.895517 c 0,-1.516936 0.2973125,-2.968618 0.8735239,-4.353594 C 3.4574608,8.14149 4.2962287,6.883977 5.3835763,5.766485 7.5417078,3.536256 10.208553,2.418281 13.372392,2.418281 Z m 59.150047,1.834315 c 0.411749,0 0.801516,0.05877 1.162388,0.176465 0.364421,0.12126 0.688818,0.2965 0.977515,0.524753 0.287514,0.227065 0.523578,0.509931 0.714072,0.845178 0.186943,0.336436 0.306186,0.722339 0.35588,1.158637 l -1.585285,0 C 74.118609,6.763851 74.056849,6.589744 73.959826,6.435197 73.862806,6.278273 73.740233,6.138456 73.594701,6.019574 73.44917,5.898315 73.28356,5.807518 73.100166,5.740944 c -0.184577,-0.06776 -0.374219,-0.09984 -0.577727,-0.09984 -0.369154,0 -0.679112,0.07209 -0.938229,0.215939 -0.256752,0.142657 -0.466637,0.336826 -0.621634,0.578156 -0.160914,0.24252 -0.275535,0.518698 -0.351259,0.826603 -0.07336,0.307905 -0.108613,0.628459 -0.108613,0.958952 0,0.317415 0.03526,0.622218 0.108613,0.921801 0.07336,0.298394 0.190345,0.566751 0.351259,0.805705 0.158547,0.238953 0.369615,0.428478 0.621634,0.573513 0.259117,0.142659 0.569075,0.215938 0.938229,0.215938 0.501671,0 0.890034,-0.154156 1.171631,-0.462061 0.279234,-0.309093 0.451441,-0.71489 0.515333,-1.221328 l 1.582974,0 c -0.04023,0.470773 -0.149654,0.893177 -0.321216,1.272411 -0.172745,0.378045 -0.404688,0.704265 -0.688652,0.970561 -0.281598,0.267484 -0.614961,0.46925 -0.998313,0.608342 -0.382169,0.14147 -0.803864,0.213616 -1.261757,0.213616 -0.566746,0 -1.081284,-0.0998 -1.534444,-0.299527 -0.455526,-0.200911 -0.838472,-0.473522 -1.150833,-0.826602 -0.313544,-0.350702 -0.55423,-0.764431 -0.718693,-1.237582 -0.168012,-0.47434 -0.24958,-0.985606 -0.249577,-1.532466 0,-0.562312 0.08156,-1.083499 0.249577,-1.564972 0.16683,-0.480284 0.407516,-0.900643 0.718693,-1.258478 0.312361,-0.359025 0.695307,-0.636057 1.150833,-0.840534 0.454344,-0.204478 0.964149,-0.306494 1.534444,-0.306493 z m -37.071615,0.176465 3.35313,0 c 0.463809,0 0.861304,0.0688 1.185497,0.204329 0.326559,0.137903 0.59139,0.31983 0.797263,0.543329 0.204693,0.224687 0.355974,0.480859 0.450629,0.768554 0.09347,0.287695 0.138654,0.588355 0.138654,0.89626 0,0.300772 -0.04518,0.596844 -0.138654,0.889294 -0.09466,0.290072 -0.245936,0.5497 -0.450629,0.773199 -0.205873,0.224687 -0.469521,0.406614 -0.797263,0.543328 -0.324193,0.135526 -0.721688,0.204329 -1.185497,0.204329 l -1.717006,0 0,2.695745 -1.636124,0 0,-7.518367 z m 7.334828,0 1.633813,0 0,4.676341 c 0,0.203288 0.01884,0.402843 0.05315,0.601376 0.03431,0.196156 0.108317,0.36794 0.219537,0.52011 0.111219,0.149791 0.266901,0.274079 0.464493,0.369184 0.197592,0.0963 0.462477,0.141637 0.794953,0.141637 0.58331,0 0.986166,-0.130807 1.208605,-0.394725 0.222439,-0.263918 0.332771,-0.674136 0.332771,-1.23526 l 0,-4.678663 1.636125,0 0,4.676341 c -0.0012,1.016442 -0.280286,1.772774 -0.843483,2.268512 -0.563196,0.495739 -1.341326,0.743015 -2.334018,0.743015 -1.006892,0 -1.786094,-0.247387 -2.338642,-0.738371 -0.551364,-0.489795 -0.827305,-1.249581 -0.827305,-2.273156 l 0,-4.676341 z m 8.286923,0 3.505649,0 c 0.354956,0 0.677208,0.031 0.968272,0.0952 0.288697,0.0642 0.540494,0.16729 0.748734,0.311137 0.209424,0.143847 0.36934,0.335749 0.485292,0.573514 0.113586,0.238953 0.171007,0.533948 0.171007,0.88465 0,0.378045 -0.08382,0.695311 -0.2542,0.947342 -0.172745,0.25203 -0.422009,0.461783 -0.755668,0.622273 0.457893,0.133148 0.800112,0.367217 1.023734,0.698898 0.223622,0.334059 0.337393,0.737812 0.337393,1.207397 0,0.379234 -0.07395,0.707497 -0.221848,0.984493 -0.145532,0.275806 -0.342052,0.502054 -0.586971,0.677999 -0.247286,0.175946 -0.526389,0.306865 -0.843483,0.390082 -0.318275,0.08322 -0.640417,0.123063 -0.972892,0.123063 l -3.605019,0 0,-7.516047 z m 7.870959,0 1.636123,0 0,6.129861 3.623507,0 0,1.388506 -5.25963,0 0,-7.518367 z m 6.63231,0 1.636125,0 0,7.518367 -1.636125,0 0,-7.518367 z m -28.488896,1.284021 0,2.254581 1.26869,0 c 0.186943,0 0.369191,-0.01445 0.540752,-0.04179 0.173929,-0.02734 0.327355,-0.08169 0.459872,-0.162533 0.132516,-0.08084 0.238448,-0.196231 0.318905,-0.343645 0.08046,-0.147414 0.117857,-0.340393 0.117857,-0.578157 0,-0.237764 -0.0374,-0.431876 -0.117857,-0.580479 C 39.595897,6.113645 39.488778,5.998199 39.356262,5.919737 39.224928,5.838897 39.071502,5.785735 38.89639,5.757203 38.723645,5.728673 38.542581,5.713083 38.355638,5.713083 l -1.26869,0 z m 15.626373,0 0,1.760012 1.656922,0 c 0.291063,0 0.530566,-0.06982 0.718693,-0.211294 0.186943,-0.140281 0.27962,-0.36755 0.27962,-0.684966 0,-0.174757 -0.02973,-0.320127 -0.09244,-0.431877 C 55.213406,6.034397 55.130662,5.945589 55.026542,5.882581 54.920055,5.819571 54.803289,5.773953 54.666039,5.752554 54.529973,5.726404 54.390985,5.713084 54.245453,5.713084 l -1.532132,0 z m -39.36866,0.127705 c -4.5694641,0 -5.7195021,4.362139 -5.7195021,8.059373 0,3.698424 1.148855,8.057054 5.7195021,8.057054 4.570647,0 5.719502,-4.361007 5.719502,-8.057054 0,-3.698423 -1.148855,-8.059373 -5.719502,-8.059373 z m 39.373282,2.760759 0,2.064184 1.749358,0 0,-0.0023 c 0.158861,-1.65e-4 0.310445,-0.01568 0.455249,-0.04644 0.145532,-0.03091 0.272336,-0.08538 0.385922,-0.15789 0.108853,-0.07371 0.199442,-0.174645 0.268065,-0.301849 0.06626,-0.123638 0.09706,-0.286803 0.09706,-0.482959 0,-0.385178 -0.107115,-0.662546 -0.318906,-0.826603 -0.21534,-0.164057 -0.501264,-0.246123 -0.855036,-0.246123 l -1.781711,0 z M 13.344661,8.877854 c 0.18576,0 0.353292,0.02918 0.513022,0.07198 0.328926,0.285318 0.491539,0.680136 0.175629,1.232938 l -3.043468,5.658512 c -0.09347,-0.716859 -0.108613,-1.41923 -0.108613,-1.941123 0,-1.628685 0.11244,-5.022306 2.46343,-5.022306 z m 2.278557,2.607513 c 0.162096,0.869028 0.182562,1.774075 0.182562,2.412472 0,1.628685 -0.111312,5.019984 -2.461119,5.019984 -0.184577,0 -0.356786,-0.02 -0.515333,-0.05804 -0.02958,-0.01189 -0.05592,-0.02305 -0.0855,-0.03018 -0.04733,-0.01427 -0.100627,-0.02856 -0.145588,-0.04876 -0.522971,-0.223511 -0.852322,-0.630887 -0.376682,-1.35369 l 3.40166,-5.941786 z m 31.391399,3.292478 c 0.576211,0 1.0894,0.100883 1.541377,0.304172 0.450794,0.203289 0.832667,0.482642 1.146211,0.842856 0.312361,0.360212 0.551919,0.77695 0.716383,1.260801 0.169195,0.480284 0.251888,1.002714 0.251888,1.56265 0,0.546857 -0.08269,1.060503 -0.251888,1.532466 -0.168015,0.471962 -0.407571,0.883367 -0.716383,1.235259 -0.314727,0.350702 -0.695417,0.624503 -1.146211,0.826603 -0.451977,0.197345 -0.963983,0.299527 -1.541377,0.299527 -0.569113,0 -1.081229,-0.102182 -1.536755,-0.299527 -0.454344,-0.2021 -0.837289,-0.475901 -1.150833,-0.826603 -0.311178,-0.351892 -0.550736,-0.765675 -0.716383,-1.235259 -0.165646,-0.471963 -0.249577,-0.985609 -0.249577,-1.532466 0,-0.559936 0.08275,-1.081178 0.249577,-1.56265 0.16683,-0.479095 0.406388,-0.900589 0.716383,-1.260801 0.313544,-0.360214 0.696489,-0.639567 1.150833,-0.842856 0.455526,-0.203289 0.966459,-0.304172 1.536755,-0.304172 z m -11.563793,0.183432 3.207543,0 c 0.47919,0 0.925085,0.07301 1.338017,0.227548 0.414115,0.154546 0.77055,0.386293 1.072262,0.696575 0.301713,0.309094 0.53907,0.696185 0.709449,1.158636 0.170379,0.46483 0.254201,1.009422 0.254201,1.629987 0,0.550424 -0.06955,1.056082 -0.207982,1.518533 -0.139616,0.46483 -0.348152,0.86394 -0.628568,1.202754 -0.281598,0.334059 -0.63256,0.599129 -1.053774,0.794095 -0.418848,0.190212 -0.91331,0.287918 -1.483605,0.287918 l -3.207543,0 0,-7.516046 z m 16.853466,0 2.299355,0 1.740115,5.168588 0.02311,0 1.649989,-5.168588 2.297045,0 0,7.516046 -1.532133,0 0,-5.326478 -0.02311,0 -1.820997,5.326478 -1.259446,0 -1.820997,-5.275396 -0.02311,0 0,5.275396 -1.529822,0 0,-7.516046 z m 12.06757,0 1.67541,0 2.780024,7.516046 -1.696207,0 -0.563862,-1.674102 -2.780024,0 -0.58235,1.674102 -1.645368,0 2.812377,-7.516046 z m 5.698704,0 1.636124,0 0,7.516046 -1.636124,0 0,-7.516046 z m 3.628129,0 1.62457,0 3.10355,5.043205 0.0208,0 0,-5.043205 1.532132,0 0,7.516046 -1.638434,0 -3.087376,-5.033916 -0.02542,0 0,5.033916 -1.529822,0 0,-7.516046 z m -26.686387,1.207397 c -0.367971,0 -0.677983,0.07323 -0.935918,0.21826 -0.255568,0.142659 -0.465399,0.336882 -0.623946,0.575835 -0.15973,0.24252 -0.27559,0.521021 -0.348947,0.828926 -0.07336,0.307904 -0.110924,0.624947 -0.110924,0.956629 0.0012,0.316226 0.03875,0.624596 0.110924,0.921802 0.07336,0.299582 0.189217,0.569073 0.348947,0.808026 0.15973,0.237764 0.369561,0.427289 0.623946,0.573514 0.257935,0.143847 0.567947,0.215939 0.935918,0.215939 0.369154,0 0.682661,-0.07209 0.938229,-0.215939 0.257935,-0.143848 0.464216,-0.334561 0.623946,-0.573514 0.158547,-0.237765 0.275535,-0.508444 0.351259,-0.808026 0.07336,-0.297206 0.108613,-0.605576 0.108613,-0.921802 0,-0.328115 -0.03526,-0.648725 -0.108613,-0.956629 -0.07336,-0.311472 -0.192712,-0.586406 -0.351259,-0.828926 -0.160913,-0.238953 -0.367194,-0.433176 -0.623946,-0.575835 -0.255568,-0.143848 -0.569075,-0.21826 -0.938229,-0.21826 z m -9.925358,0.181109 0,4.739033 1.458184,0 c 0.235454,0 0.463901,-0.03876 0.68634,-0.118417 0.222439,-0.07371 0.418792,-0.204794 0.593904,-0.383116 0.172746,-0.179513 0.311844,-0.412336 0.415964,-0.701221 0.104121,-0.286505 0.157142,-0.638061 0.157143,-1.054149 0,-0.376856 -0.03757,-0.720761 -0.110924,-1.026288 -0.07336,-0.304338 -0.190179,-0.568498 -0.358192,-0.782486 -0.166829,-0.217554 -0.385238,-0.385029 -0.66092,-0.501534 -0.273316,-0.116505 -0.613334,-0.171822 -1.016801,-0.171822 l -1.164698,0 z m 28.096042,0.462062 -0.96596,2.76076 1.924987,0 -0.938229,-2.76076 -0.0208,0 z" /></svg>