<?xml version="1.0" encoding="UTF-8"?><!DOCTYPE svg PUBLIC "-//W3C//DTD SVG 1.1//EN" "http://www.w3.org/Graphics/SVG/1.1/DTD/svg11.dtd"><svg xmlns="http://www.w3.org/2000/svg" xmlns:xlink="http://www.w3.org/1999/xlink"><symbol id="chevron-right" viewBox="0 0 20 20">
<path d="M9.163,4.516c0.418,0.408,4.502,4.695,4.502,4.695C13.888,9.43,14,9.715,14,10s-0.112,0.57-0.335,0.787
	c0,0-4.084,4.289-4.502,4.695c-0.418,0.408-1.17,0.436-1.615,0c-0.446-0.434-0.481-1.041,0-1.574L11.295,10L7.548,6.092
	c-0.481-0.533-0.446-1.141,0-1.576C7.993,4.08,8.745,4.107,9.163,4.516z"/>
</symbol><symbol id="chevron-up" viewBox="0 0 20 20">
<path d="M15.484,12.452c-0.436,0.446-1.043,0.481-1.576,0L10,8.705l-3.908,3.747c-0.533,0.481-1.141,0.446-1.574,0
	c-0.436-0.445-0.408-1.197,0-1.615c0.406-0.418,4.695-4.502,4.695-4.502C9.43,6.112,9.715,6,10,6s0.57,0.112,0.789,0.335
	c0,0,4.287,4.084,4.695,4.502C15.893,11.255,15.92,12.007,15.484,12.452z"/>
</symbol><symbol id="warning" viewBox="0 0 20 20">
<path d="M19.511,17.98L10.604,1.348C10.48,1.133,10.25,1,10,1C9.749,1,9.519,1.133,9.396,1.348L0.49,17.98
	c-0.121,0.211-0.119,0.471,0.005,0.68C0.62,18.871,0.847,19,1.093,19h17.814c0.245,0,0.474-0.129,0.598-0.34
	C19.629,18.451,19.631,18.191,19.511,17.98z M11,17H9v-2h2V17z M11,13.5H9V7h2V13.5z"/>
</symbol><symbol id="sort-up" viewBox="0 0 20 20">
     <path d="M 15,9 5,9 10,0 15,9 Z"/>
</symbol><symbol id="sort-down" viewBox="0 0 20 20">
     <path d="m 5,11 10,0 -5,9 -5,-9 z"/>
</symbol><symbol id="sort-both" viewBox="0 0 20 20">
     <path d="M 15,9 5,9 10,0 15,9 Z"/>
     <path d="m 5,11 10,0 -5,9 -5,-9 z"/>
</symbol><symbol id="home" viewBox="0 0 20 20">
<path d="M18.672,11H17v6c0,0.445-0.194,1-1,1h-4v-6H8v6H4c-0.806,0-1-0.555-1-1v-6H1.328c-0.598,0-0.47-0.324-0.06-0.748L9.292,2.22
	C9.487,2.018,9.743,1.918,10,1.908c0.257,0.01,0.513,0.109,0.708,0.312l8.023,8.031C19.142,10.676,19.27,11,18.672,11z"/>
</symbol><symbol id="files" viewBox="0 0 20 20">
<path d="M18.405,4.799C18.294,4.359,17.75,4,17.195,4h-6.814C9.827,4,9.051,3.682,8.659,3.293L8.063,2.705
	C7.671,2.316,6.896,2,6.342,2H3.087C2.532,2,2.028,2.447,1.967,2.994L1.675,6h16.931L18.405,4.799z M19.412,7H0.588
	c-0.342,0-0.61,0.294-0.577,0.635l0.923,9.669C0.971,17.698,1.303,18,1.7,18H18.3c0.397,0,0.728-0.302,0.766-0.696l0.923-9.669
	C20.022,7.294,19.754,7,19.412,7z"/>
</symbol><symbol id="code" viewBox="0 0 20 20">
<path d="M5.719,14.75c-0.236,0-0.474-0.083-0.664-0.252L-0.005,10l5.341-4.748C5.748,4.887,6.38,4.922,6.747,5.335
	c0.367,0.413,0.33,1.045-0.083,1.412L3.005,10l3.378,3.002c0.413,0.367,0.45,0.999,0.083,1.412
	C6.269,14.637,5.994,14.75,5.719,14.75z M14.664,14.748L20.005,10l-5.06-4.498c-0.413-0.367-1.045-0.33-1.411,0.083
	c-0.367,0.413-0.33,1.045,0.083,1.412L16.995,10l-3.659,3.252c-0.413,0.367-0.45,0.999-0.083,1.412C13.45,14.887,13.725,15,14,15
	C14.236,15,14.474,14.917,14.664,14.748z M9.986,16.165l2-12c0.091-0.545-0.277-1.06-0.822-1.151
	c-0.547-0.092-1.061,0.277-1.15,0.822l-2,12c-0.091,0.545,0.277,1.06,0.822,1.151C8.892,16.996,8.946,17,9.001,17
	C9.481,17,9.905,16.653,9.986,16.165z"/>
</symbol><symbol id="slides" viewBox="0 0 20 20">
<path fill-rule="evenodd" clip-rule="evenodd" d="M2.539,20H6l1.406-3.698L4.44,15.298L2.539,20z M12.594,16.302L14,20h3.461
	l-1.901-4.702L12.594,16.302z M18,2h-6.5L11,0H9L8.5,2H2C1.447,2,1,2.447,1,3v11c0,0.552,0.447,1,1,1h16c0.553,0,1-0.448,1-1V3
	C19,2.448,18.553,2,18,2z"/>
</symbol><symbol id="pacman" viewBox="0 0 20 20">
<path d="M15,7h-3V1H8v6H5l5,5L15,7z M19.338,13.532c-0.21-0.224-1.611-1.723-2.011-2.114C17.062,11.159,16.683,11,16.285,11h-1.757
	l3.064,2.994h-3.544c-0.102,0-0.194,0.052-0.24,0.133L12.992,16H7.008l-0.816-1.873c-0.046-0.081-0.139-0.133-0.24-0.133H2.408
	L5.471,11H3.715c-0.397,0-0.776,0.159-1.042,0.418c-0.4,0.392-1.801,1.891-2.011,2.114c-0.489,0.521-0.758,0.936-0.63,1.449
	l0.561,3.074c0.128,0.514,0.691,0.936,1.252,0.936h16.312c0.561,0,1.124-0.422,1.252-0.936l0.561-3.074
	C20.096,14.468,19.828,14.053,19.338,13.532z"/>
</symbol><symbol id="docs" viewBox="0 0 20 20">
<path d="M17,5.95v10.351c0,0.522-0.452,0.771-1,1.16c-0.44,0.313-1-0.075-1-0.587c0,0,0-9.905,0-10.114
	c0-0.211-0.074-0.412-0.314-0.535c-0.24-0.123-7.738-4.065-7.738-4.065C6.827,2.115,6.299,1.782,5.595,2.144
	C4.926,2.488,4.562,2.862,4.469,3.038l8.18,4.482C12.866,7.634,13,7.81,13,8.036v10.802c0,0.23-0.142,0.476-0.369,0.585
	c-0.104,0.052-0.219,0.077-0.333,0.077c-0.135,0-0.271-0.033-0.386-0.104c-0.215-0.131-7.774-4.766-8.273-5.067
	c-0.24-0.144-0.521-0.439-0.527-0.658L3,3.385c0-0.198-0.023-0.547,0.289-1.032c0.697-1.084,3.129-2.317,4.36-1.678l8.999,4.555
	C16.865,5.342,17,5.566,17,5.95z"/>
</symbol><symbol id="email" viewBox="0 0 20 20">
<path d="M1.574,5.286c0.488,0.262,7.248,3.894,7.5,4.029C9.326,9.45,9.652,9.514,9.98,9.514c0.328,0,0.654-0.064,0.906-0.199
	s7.012-3.767,7.5-4.029C18.875,5.023,19.337,4,18.44,4H1.521C0.624,4,1.086,5.023,1.574,5.286z M18.613,7.489
	c-0.555,0.289-7.387,3.849-7.727,4.027s-0.578,0.199-0.906,0.199s-0.566-0.021-0.906-0.199S1.941,7.777,1.386,7.488
	C0.996,7.284,1,7.523,1,7.707S1,15,1,15c0,0.42,0.566,1,1,1h16c0.434,0,1-0.58,1-1c0,0,0-7.108,0-7.292S19.004,7.285,18.613,7.489z"/>
</symbol><symbol id="github" viewBox="0 0 20 20">
<path d="M13.18,11.309c-0.718,0-1.3,0.807-1.3,1.799c0,0.994,0.582,1.801,1.3,1.801s1.3-0.807,1.3-1.801
	C14.479,12.116,13.898,11.309,13.18,11.309z M17.706,6.626c0.149-0.365,0.155-2.439-0.635-4.426c0,0-1.811,0.199-4.551,2.08
	c-0.575-0.16-1.548-0.238-2.519-0.238c-0.973,0-1.945,0.078-2.52,0.238C4.74,2.399,2.929,2.2,2.929,2.2
	C2.14,4.187,2.148,6.261,2.295,6.626C1.367,7.634,0.8,8.845,0.8,10.497c0,7.186,5.963,7.301,7.467,7.301
	c0.342,0,1.018,0.002,1.734,0.002c0.715,0,1.392-0.002,1.732-0.002c1.506,0,7.467-0.115,7.467-7.301
	C19.2,8.845,18.634,7.634,17.706,6.626z M10.028,16.915H9.972c-3.771,0-6.709-0.449-6.709-4.115c0-0.879,0.31-1.693,1.047-2.369
	c1.227-1.127,3.305-0.531,5.662-0.531c0.01,0,0.02,0,0.029,0c0.01,0,0.018,0,0.027,0c2.357,0,4.436-0.596,5.664,0.531
	c0.735,0.676,1.045,1.49,1.045,2.369C16.737,16.466,13.8,16.915,10.028,16.915z M6.821,11.309c-0.718,0-1.3,0.807-1.3,1.799
	c0,0.994,0.582,1.801,1.3,1.801c0.719,0,1.301-0.807,1.301-1.801C8.122,12.116,7.54,11.309,6.821,11.309z"/>
</symbol><symbol id="deviantart" viewBox="0 0 20 20">
    <path d="M 12.759766 0 L 10.693359 3.9667969 L 4 3.9667969 L 4 8.9257812 L 8.0488281 8.9257812 L 4 16.693359 L 4 20 L 7.9667969 20 L 10.115234 15.951172 L 16.5625 15.951172 L 16.5625 11.074219 L 12.677734 11.074219 L 16.5625 3.6367188 L 16.5625 0 L 12.759766 0 z ">
</path></symbol><symbol id="linkedin" viewBox="0 0 20 20">
<g>
	<path d="M5,3c0,1.062-0.71,1.976-2.001,1.976C1.784,4.976,1,4.114,1,3.052C1,1.962,1.76,1,3,1C4.24,1,4.976,1.91,5,3z M1,19V6h4v13
		H1z"/>
	<path d="M7,10.444c0-1.545-0.051-2.836-0.102-3.951h3.594l0.178,1.723h0.076c0.506-0.811,1.746-2,3.822-2
		c2.532,0,4.432,1.695,4.432,5.342V19h-4v-6.861c0-1.594-0.607-2.81-2-2.81c-1.062,0-1.594,0.86-1.873,1.569
		C11.025,11.152,11,11.506,11,11.861V19H7V10.444z"/>
</g>
</symbol><symbol id="facebook" viewBox="0 0 20 20">
<path d="M17,1H3C1.9,1,1,1.9,1,3v14c0,1.101,0.9,2,2,2h7v-7H8V9.525h2V7.475c0-2.164,1.212-3.684,3.766-3.684l1.803,0.002v2.605
	h-1.197C13.378,6.398,13,7.144,13,7.836v1.69h2.568L15,12h-2v7h4c1.1,0,2-0.899,2-2V3C19,1.9,18.1,1,17,1z"/>
</symbol><symbol id="cc-zero" viewBox="0 0 20 20">
    <path d="m 7.1728597,3.9465053 c -3.839437,0 -7.07656033,1.3515416 -9.7150647,4.067999 -1.3346336,1.3493125 -2.3532272,2.8888367 -3.0619555,4.6066837 -0.6921637,1.700014 -1.0375985,3.47316 -1.0375986,5.324156 0,1.86645 0.3454349,3.639596 1.0375986,5.324156 0.6921637,1.68456 1.6953574,3.198136 3.0134264,4.548637 1.3346336,1.332668 2.83459857,2.359679 4.4993418,3.076539 1.681307,0.701405 3.435047,1.051829 5.264252,1.051829 1.830388,0 3.6075893,-0.362832 5.3220253,-1.079691 1.713253,-0.718048 3.241708,-1.746992 4.594089,-3.095116 1.302688,-1.28155 2.288559,-2.754203 2.94641,-4.42093 0.675599,-1.682183 1.009868,-3.486722 1.009868,-5.403103 0,-1.899737 -0.331958,-3.698832 -1.007557,-5.382204 C 19.362096,10.866636 18.371991,9.3642254 17.070487,8.0470111 14.351526,5.3103437 11.04661,3.9465053 7.1728597,3.9465053 Z M 17.911658,4.318012 c 4.122219,3.0814257 6.806758,8.016765 6.807941,13.599468 -0.0012,5.078647 -2.224149,9.623605 -5.728746,12.72643 l 74.367387,0 0,-26.325898 -75.446582,0 z M 7.2306327,6.4657854 c 3.1307103,0 5.8014013,1.1221734 8.0257903,3.3714239 1.071966,1.0842047 1.89454,2.3231247 2.454185,3.7081017 0.559647,1.383788 0.843483,2.850943 0.843483,4.402354 0,3.21814 -1.088698,5.884835 -3.246829,8.017581 -1.12166,1.102038 -2.382067,1.948367 -3.782959,2.53089 -1.384327,0.581334 -2.8087713,0.870719 -4.2936703,0.870719 -1.500279,0 -2.936279,-0.283887 -4.305225,-0.852144 -1.367763,-0.581334 -2.59505943,-1.417632 -3.68359043,-2.503027 -1.08853087,-1.09966 -1.92611557,-2.341699 -2.51889167,-3.726677 -0.5762115,-1.400431 -0.8735239,-2.841692 -0.8735239,-4.341985 0,-1.516936 0.2973125,-2.968618 0.8735239,-4.353594 0.5927761,-1.400433 1.431544,-2.657946 2.51889167,-3.775438 C 1.3999487,7.5837608 4.0667937,6.4657854 7.2306327,6.4657854 Z M 66.38068,8.3001001 c 0.411749,0 0.801516,0.058773 1.162388,0.1764656 0.364421,0.1212599 0.688818,0.2964996 0.977515,0.5247533 0.287514,0.227065 0.523578,0.5099302 0.714072,0.8451779 0.186943,0.3364361 0.306186,0.7223391 0.35588,1.1586371 l -1.585285,0 c -0.0284,-0.193778 -0.09016,-0.367885 -0.187183,-0.522432 -0.09702,-0.156924 -0.219593,-0.296741 -0.365125,-0.415623 -0.145531,-0.1212597 -0.311141,-0.212056 -0.494535,-0.27863 -0.184577,-0.067763 -0.374219,-0.099842 -0.577727,-0.099842 -0.369154,0 -0.679112,0.072091 -0.938229,0.2159383 -0.256752,0.1426582 -0.466637,0.3368262 -0.621634,0.5781572 -0.160914,0.24252 -0.275535,0.518698 -0.351259,0.826603 -0.07336,0.307905 -0.108613,0.628459 -0.108613,0.958951 0,0.317415 0.03526,0.622219 0.108613,0.921802 0.07336,0.298394 0.190345,0.566751 0.351259,0.805705 0.158547,0.238953 0.369615,0.428477 0.621634,0.573513 0.259117,0.142659 0.569075,0.215938 0.938229,0.215938 0.501671,0 0.890034,-0.154156 1.171631,-0.462061 0.279234,-0.309093 0.451441,-0.71489 0.515333,-1.221328 l 1.582974,0 c -0.04023,0.470773 -0.149654,0.893177 -0.321216,1.272411 -0.172745,0.378045 -0.404688,0.704265 -0.688652,0.970561 -0.281598,0.267484 -0.614961,0.46925 -0.998313,0.608342 -0.382169,0.14147 -0.803864,0.213616 -1.261757,0.213616 -0.566746,0 -1.081284,-0.0998 -1.534444,-0.299527 -0.455526,-0.200911 -0.838472,-0.473522 -1.150833,-0.826602 -0.313544,-0.350702 -0.55423,-0.764431 -0.718693,-1.237582 -0.168012,-0.47434 -0.24958,-0.985606 -0.249577,-1.532466 0,-0.562312 0.08156,-1.083499 0.249577,-1.564972 0.16683,-0.480284 0.407516,-0.9006436 0.718693,-1.2584788 C 64.007764,9.088103 64.39071,8.8110706 64.846236,8.6065931 65.30058,8.4021159 65.810385,8.3001 66.38068,8.3001001 Z m -37.071615,0.1764656 3.35313,0 c 0.463809,0 0.861304,0.068803 1.185497,0.2043287 0.326559,0.1379034 0.59139,0.3198302 0.797263,0.5433287 0.204693,0.2246873 0.355974,0.4808598 0.450629,0.7685546 0.09347,0.2876953 0.138654,0.5883553 0.138654,0.8962603 0,0.300772 -0.04518,0.596844 -0.138654,0.889294 -0.09466,0.290072 -0.245936,0.5497 -0.450629,0.773199 -0.205873,0.224687 -0.469521,0.406614 -0.797263,0.543328 -0.324193,0.135526 -0.721688,0.204329 -1.185497,0.204329 l -1.717006,0 0,2.695745 -1.636124,0 0,-7.5183673 z m 7.334828,0 1.633813,0 0,4.6763413 c 0,0.203288 0.01884,0.402843 0.05315,0.601376 0.03431,0.196156 0.108317,0.36794 0.219537,0.52011 0.111219,0.149791 0.266901,0.274079 0.464493,0.369184 0.197592,0.0963 0.462477,0.141637 0.794953,0.141637 0.58331,0 0.986166,-0.130807 1.208605,-0.394725 0.222439,-0.263918 0.332771,-0.674136 0.332771,-1.23526 l 0,-4.6786633 1.636125,0 0,4.6763413 c -0.0012,1.016442 -0.280286,1.772774 -0.843483,2.268512 -0.563196,0.495739 -1.341326,0.743015 -2.334018,0.743015 -1.006892,0 -1.786094,-0.247387 -2.338642,-0.738371 -0.551364,-0.489795 -0.827305,-1.249581 -0.827305,-2.273156 l 0,-4.6763413 z m 8.286923,0 3.505649,0 c 0.354956,0 0.677208,0.031002 0.968272,0.095198 0.288697,0.064196 0.540494,0.1672894 0.748734,0.3111368 0.209424,0.1438475 0.36934,0.3357493 0.485292,0.5735136 0.113586,0.2389532 0.171007,0.533948 0.171007,0.8846509 0,0.378045 -0.08382,0.695311 -0.2542,0.947342 -0.172745,0.25203 -0.422009,0.461783 -0.755668,0.622273 0.457893,0.133148 0.800112,0.367217 1.023734,0.698898 0.223622,0.334059 0.337393,0.737812 0.337393,1.207397 0,0.379234 -0.07395,0.707497 -0.221848,0.984493 -0.145532,0.275806 -0.342052,0.502054 -0.586971,0.677999 -0.247286,0.175946 -0.526389,0.306865 -0.843483,0.390082 -0.318275,0.08322 -0.640417,0.123063 -0.972892,0.123063 l -3.605019,0 0,-7.516047 z m 7.870959,0 1.636123,0 0,6.1298613 3.623507,0 0,1.388506 -5.25963,0 0,-7.5183673 z m 6.63231,0 1.636125,0 0,7.5183673 -1.636125,0 0,-7.5183673 z m -28.488896,1.2840204 0,2.2545819 1.26869,0 c 0.186943,0 0.369191,-0.01445 0.540752,-0.04179 0.173929,-0.02734 0.327355,-0.08169 0.459872,-0.162533 0.132516,-0.08084 0.238448,-0.196231 0.318905,-0.343645 0.08046,-0.147414 0.117857,-0.340393 0.117857,-0.578157 0,-0.237764 -0.0374,-0.431876 -0.117857,-0.580479 -0.07927,-0.147414 -0.186389,-0.26286 -0.318905,-0.3413223 -0.131334,-0.08084 -0.28476,-0.1340026 -0.459872,-0.1625341 -0.172745,-0.028532 -0.353809,-0.044116 -0.540752,-0.044116 l -1.26869,0 z m 15.626373,0 0,1.7600129 1.656922,0 c 0.291063,0 0.530566,-0.06982 0.718693,-0.211294 0.186943,-0.140281 0.27962,-0.36755 0.27962,-0.684966 0,-0.174757 -0.02973,-0.320127 -0.09244,-0.431877 C 49.071651,10.081902 48.988903,9.9930935 48.884783,9.9300859 48.778296,9.8670784 48.66153,9.8214573 48.52428,9.8000586 48.388214,9.7739045 48.249226,9.7605861 48.103694,9.7605861 l -1.532132,0 z M 7.2029017,9.8882914 c -4.569464,0 -5.719502,4.3621396 -5.719502,8.0593736 0,3.698424 1.148855,8.057054 5.719502,8.057054 4.5706473,0 5.7195023,-4.361007 5.7195023,-8.057054 0,-3.698423 -1.148855,-8.0593736 -5.7195023,-8.0593736 z m 39.3732823,2.7607596 0,2.064184 1.749358,0 0,-0.0023 c 0.158861,-1.65e-4 0.310445,-0.01568 0.455249,-0.04644 0.145532,-0.03091 0.272336,-0.08538 0.385922,-0.15789 0.108853,-0.07371 0.199442,-0.174645 0.268065,-0.301849 0.06626,-0.123638 0.09706,-0.286803 0.09706,-0.482959 0,-0.385178 -0.107115,-0.662546 -0.318906,-0.826603 -0.21534,-0.164057 -0.501264,-0.246123 -0.855036,-0.246123 l -1.781711,0 z M 7.2029017,12.925359 c 0.18576,0 0.353292,0.02918 0.513022,0.07198 0.328926,0.285318 0.491539,0.680136 0.175629,1.232938 l -3.043468,5.658512 c -0.09347,-0.716859 -0.108613,-1.41923 -0.108613,-1.941123 0,-1.628685 0.11244,-5.022306 2.46343,-5.022306 z m 2.278557,2.607513 c 0.162096,0.869028 0.182562,1.774075 0.182562,2.412472 0,1.628685 -0.111312,5.019984 -2.461119,5.019984 -0.184577,0 -0.356786,-0.02 -0.515333,-0.05804 -0.02958,-0.01189 -0.05592,-0.02305 -0.0855,-0.03018 -0.04733,-0.01427 -0.100627,-0.02856 -0.145588,-0.04876 -0.522971,-0.223511 -0.852322,-0.630887 -0.376682,-1.35369 l 3.40166,-5.941786 z M 40.872858,18.82535 c 0.576211,0 1.0894,0.100883 1.541377,0.304172 0.450794,0.203289 0.832667,0.482642 1.146211,0.842856 0.312361,0.360212 0.551919,0.77695 0.716383,1.260801 0.169195,0.480284 0.251888,1.002714 0.251888,1.56265 0,0.546857 -0.08269,1.060503 -0.251888,1.532466 -0.168015,0.471962 -0.407571,0.883367 -0.716383,1.235259 -0.314727,0.350702 -0.695417,0.624503 -1.146211,0.826603 -0.451977,0.197345 -0.963983,0.299527 -1.541377,0.299527 -0.569113,0 -1.081229,-0.102182 -1.536755,-0.299527 -0.454344,-0.2021 -0.837289,-0.475901 -1.150833,-0.826603 -0.311178,-0.351892 -0.550736,-0.765675 -0.716383,-1.235259 -0.165646,-0.471963 -0.249577,-0.985609 -0.249577,-1.532466 0,-0.559936 0.08275,-1.081178 0.249577,-1.56265 0.16683,-0.479095 0.406388,-0.900589 0.716383,-1.260801 0.313544,-0.360214 0.696489,-0.639567 1.150833,-0.842856 0.455526,-0.203289 0.966459,-0.304172 1.536755,-0.304172 z m -11.563793,0.183432 3.207543,0 c 0.47919,0 0.925085,0.07301 1.338017,0.227548 0.414115,0.154546 0.77055,0.386293 1.072262,0.696575 0.301713,0.309094 0.53907,0.696185 0.709449,1.158636 0.170379,0.46483 0.254201,1.009422 0.254201,1.629987 0,0.550424 -0.06955,1.056082 -0.207982,1.518533 -0.139616,0.46483 -0.348152,0.86394 -0.628568,1.202754 -0.281598,0.334059 -0.63256,0.599129 -1.053774,0.794095 -0.418848,0.190212 -0.91331,0.287918 -1.483605,0.287918 l -3.207543,0 0,-7.516046 z m 16.853466,0 2.299355,0 1.740115,5.168588 0.02311,0 1.649989,-5.168588 2.297045,0 0,7.516046 -1.532133,0 0,-5.326478 -0.02311,0 -1.820997,5.326478 -1.259446,0 -1.820997,-5.275396 -0.02311,0 0,5.275396 -1.529822,0 0,-7.516046 z m 12.06757,0 1.67541,0 2.780024,7.516046 -1.696207,0 -0.563862,-1.674102 -2.780024,0 -0.58235,1.674102 -1.645368,0 2.812377,-7.516046 z m 5.698704,0 1.636124,0 0,7.516046 -1.636124,0 0,-7.516046 z m 3.628129,0 1.62457,0 3.10355,5.043205 0.0208,0 0,-5.043205 1.532132,0 0,7.516046 -1.638434,0 -3.087376,-5.033916 -0.02542,0 0,5.033916 -1.529822,0 0,-7.516046 z m -26.686387,1.207397 c -0.367971,0 -0.677983,0.07323 -0.935918,0.21826 -0.255568,0.142659 -0.465399,0.336882 -0.623946,0.575835 -0.15973,0.24252 -0.27559,0.521021 -0.348947,0.828926 -0.07336,0.307904 -0.110924,0.624947 -0.110924,0.956629 0.0012,0.316226 0.03875,0.624596 0.110924,0.921802 0.07336,0.299582 0.189217,0.569073 0.348947,0.808026 0.15973,0.237764 0.369561,0.427289 0.623946,0.573514 0.257935,0.143847 0.567947,0.215939 0.935918,0.215939 0.369154,0 0.682661,-0.07209 0.938229,-0.215939 0.257935,-0.143848 0.464216,-0.334561 0.623946,-0.573514 0.158547,-0.237765 0.275535,-0.508444 0.351259,-0.808026 0.07336,-0.297206 0.108613,-0.605576 0.108613,-0.921802 0,-0.328115 -0.03526,-0.648725 -0.108613,-0.956629 -0.07336,-0.311472 -0.192712,-0.586406 -0.351259,-0.828926 -0.160913,-0.238953 -0.367194,-0.433176 -0.623946,-0.575835 -0.255568,-0.143848 -0.569075,-0.21826 -0.938229,-0.21826 z m -9.925358,0.181109 0,4.739033 1.458184,0 c 0.235454,0 0.463901,-0.03876 0.68634,-0.118417 0.222439,-0.07371 0.418792,-0.204794 0.593904,-0.383116 0.172746,-0.179513 0.311844,-0.412336 0.415964,-0.701221 0.104121,-0.286505 0.157142,-0.638061 0.157143,-1.054149 0,-0.376856 -0.03757,-0.720761 -0.110924,-1.026288 -0.07336,-0.304338 -0.190179,-0.568498 -0.358192,-0.782486 -0.166829,-0.217554 -0.385238,-0.385029 -0.66092,-0.501534 -0.273316,-0.116505 -0.613334,-0.171822 -1.016801,-0.171822 l -1.164698,0 z m 28.096042,0.462062 -0.96596,2.76076 1.924987,0 -0.938229,-2.76076 -0.0208,0 z">
</path></symbol></svg>