<?xml version="1.0" encoding="UTF-8"?><!DOCTYPE svg PUBLIC "-//W3C//DTD SVG 1.1//EN" "http://www.w3.org/Graphics/SVG/1.1/DTD/svg11.dtd"><svg xmlns="http://www.w3.org/2000/svg" xmlns:xlink="http://www.w3.org/1999/xlink"><symbol id="chevron-right" viewBox="0 0 20 20">
<path d="M9.163,4.516c0.418,0.408,4.502,4.695,4.502,4.695C13.888,9.43,14,9.715,14,10s-0.112,0.57-0.335,0.787
	c0,0-4.084,4.289-4.502,4.695c-0.418,0.408-1.17,0.436-1.615,0c-0.446-0.434-0.481-1.041,0-1.574L11.295,10L7.548,6.092
	c-0.481-0.533-0.446-1.141,0-1.576C7.993,4.08,8.745,4.107,9.163,4.516z"/>
</symbol><symbol id="chevron-up" viewBox="0 0 20 20">
<path d="M15.484,12.452c-0.436,0.446-1.043,0.481-1.576,0L10,8.705l-3.908,3.747c-0.533,0.481-1.141,0.446-1.574,0
	c-0.436-0.445-0.408-1.197,0-1.615c0.406-0.418,4.695-4.502,4.695-4.502C9.43,6.112,9.715,6,10,6s0.57,0.112,0.789,0.335
	c0,0,4.287,4.084,4.695,4.502C15.893,11.255,15.92,12.007,15.484,12.452z"/>
</symbol><symbol id="warning" viewBox="0 0 20 20">
<path d="M19.511,17.98L10.604,1.348C10.48,1.133,10.25,1,10,1C9.749,1,9.519,1.133,9.396,1.348L0.49,17.98
	c-0.121,0.211-0.119,0.471,0.005,0.68C0.62,18.871,0.847,19,1.093,19h17.814c0.245,0,0.474-0.129,0.598-0.34
	C19.629,18.451,19.631,18.191,19.511,17.98z M11,17H9v-2h2V17z M11,13.5H9V7h2V13.5z"/>
</symbol><symbol id="sort-up" viewBox="0 0 20 20">
     <path d="M 15,9 5,9 10,0 15,9 Z"/>
</symbol><symbol id="sort-down" viewBox="0 0 20 20">
     <path d="m 5,11 10,0 -5,9 -5,-9 z"/>
</symbol><symbol id="sort-both" viewBox="0 0 20 20">
     <path d="M 15,9 5,9 10,0 15,9 Z"/>
     <path d="m 5,11 10,0 -5,9 -5,-9 z"/>
</symbol><symbol id="home" viewBox="0 0 20 20">
<path d="M18.672,11H17v6c0,0.445-0.194,1-1,1h-4v-6H8v6H4c-0.806,0-1-0.555-1-1v-6H1.328c-0.598,0-0.47-0.324-0.06-0.748L9.292,2.22
	C9.487,2.018,9.743,1.918,10,1.908c0.257,0.01,0.513,0.109,0.708,0.312l8.023,8.031C19.142,10.676,19.27,11,18.672,11z"/>
</symbol><symbol id="files" viewBox="0 0 20 20">
<path d="M18.405,4.799C18.294,4.359,17.75,4,17.195,4h-6.814C9.827,4,9.051,3.682,8.659,3.293L8.063,2.705
	C7.671,2.316,6.896,2,6.342,2H3.087C2.532,2,2.028,2.447,1.967,2.994L1.675,6h16.931L18.405,4.799z M19.412,7H0.588
	c-0.342,0-0.61,0.294-0.577,0.635l0.923,9.669C0.971,17.698,1.303,18,1.7,18H18.3c0.397,0,0.728-0.302,0.766-0.696l0.923-9.669
	C20.022,7.294,19.754,7,19.412,7z"/>
</symbol><symbol id="code" viewBox="0 0 20 20">
<path d="M5.719,14.75c-0.236,0-0.474-0.083-0.664-0.252L-0.005,10l5.341-4.748C5.748,4.887,6.38,4.922,6.747,5.335
	c0.367,0.413,0.33,1.045-0.083,1.412L3.005,10l3.378,3.002c0.413,0.367,0.45,0.999,0.083,1.412
	C6.269,14.637,5.994,14.75,5.719,14.75z M14.664,14.748L20.005,10l-5.06-4.498c-0.413-0.367-1.045-0.33-1.411,0.083
	c-0.367,0.413-0.33,1.045,0.083,1.412L16.995,10l-3.659,3.252c-0.413,0.367-0.45,0.999-0.083,1.412C13.45,14.887,13.725,15,14,15
	C14.236,15,14.474,14.917,14.664,14.748z M9.986,16.165l2-12c0.091-0.545-0.277-1.06-0.822-1.151
	c-0.547-0.092-1.061,0.277-1.15,0.822l-2,12c-0.091,0.545,0.277,1.06,0.822,1.151C8.892,16.996,8.946,17,9.001,17
	C9.481,17,9.905,16.653,9.986,16.165z"/>
</symbol><symbol id="slides" viewBox="0 0 20 20">
<path fill-rule="evenodd" clip-rule="evenodd" d="M2.539,20H6l1.406-3.698L4.44,15.298L2.539,20z M12.594,16.302L14,20h3.461
	l-1.901-4.702L12.594,16.302z M18,2h-6.5L11,0H9L8.5,2H2C1.447,2,1,2.447,1,3v11c0,0.552,0.447,1,1,1h16c0.553,0,1-0.448,1-1V3
	C19,2.448,18.553,2,18,2z"/>
</symbol><symbol id="pacman" viewBox="0 0 20 20">
<path d="M15,7h-3V1H8v6H5l5,5L15,7z M19.338,13.532c-0.21-0.224-1.611-1.723-2.011-2.114C17.062,11.159,16.683,11,16.285,11h-1.757
	l3.064,2.994h-3.544c-0.102,0-0.194,0.052-0.24,0.133L12.992,16H7.008l-0.816-1.873c-0.046-0.081-0.139-0.133-0.24-0.133H2.408
	L5.471,11H3.715c-0.397,0-0.776,0.159-1.042,0.418c-0.4,0.392-1.801,1.891-2.011,2.114c-0.489,0.521-0.758,0.936-0.63,1.449
	l0.561,3.074c0.128,0.514,0.691,0.936,1.252,0.936h16.312c0.561,0,1.124-0.422,1.252-0.936l0.561-3.074
	C20.096,14.468,19.828,14.053,19.338,13.532z"/>
</symbol><symbol id="docs" viewBox="0 0 20 20">
<path d="M17,5.95v10.351c0,0.522-0.452,0.771-1,1.16c-0.44,0.313-1-0.075-1-0.587c0,0,0-9.905,0-10.114
	c0-0.211-0.074-0.412-0.314-0.535c-0.24-0.123-7.738-4.065-7.738-4.065C6.827,2.115,6.299,1.782,5.595,2.144
	C4.926,2.488,4.562,2.862,4.469,3.038l8.18,4.482C12.866,7.634,13,7.81,13,8.036v10.802c0,0.23-0.142,0.476-0.369,0.585
	c-0.104,0.052-0.219,0.077-0.333,0.077c-0.135,0-0.271-0.033-0.386-0.104c-0.215-0.131-7.774-4.766-8.273-5.067
	c-0.24-0.144-0.521-0.439-0.527-0.658L3,3.385c0-0.198-0.023-0.547,0.289-1.032c0.697-1.084,3.129-2.317,4.36-1.678l8.999,4.555
	C16.865,5.342,17,5.566,17,5.95z"/>
</symbol><symbol id="email" viewBox="0 0 20 20">
<path d="M1.574,5.286c0.488,0.262,7.248,3.894,7.5,4.029C9.326,9.45,9.652,9.514,9.98,9.514c0.328,0,0.654-0.064,0.906-0.199
	s7.012-3.767,7.5-4.029C18.875,5.023,19.337,4,18.44,4H1.521C0.624,4,1.086,5.023,1.574,5.286z M18.613,7.489
	c-0.555,0.289-7.387,3.849-7.727,4.027s-0.578,0.199-0.906,0.199s-0.566-0.021-0.906-0.199S1.941,7.777,1.386,7.488
	C0.996,7.284,1,7.523,1,7.707S1,15,1,15c0,0.42,0.566,1,1,1h16c0.434,0,1-0.58,1-1c0,0,0-7.108,0-7.292S19.004,7.285,18.613,7.489z"/>
</symbol><symbol id="github" viewBox="0 0 20 20">
<path d="M13.18,11.309c-0.718,0-1.3,0.807-1.3,1.799c0,0.994,0.582,1.801,1.3,1.801s1.3-0.807,1.3-1.801
	C14.479,12.116,13.898,11.309,13.18,11.309z M17.706,6.626c0.149-0.365,0.155-2.439-0.635-4.426c0,0-1.811,0.199-4.551,2.08
	c-0.575-0.16-1.548-0.238-2.519-0.238c-0.973,0-1.945,0.078-2.52,0.238C4.74,2.399,2.929,2.2,2.929,2.2
	C2.14,4.187,2.148,6.261,2.295,6.626C1.367,7.634,0.8,8.845,0.8,10.497c0,7.186,5.963,7.301,7.467,7.301
	c0.342,0,1.018,0.002,1.734,0.002c0.715,0,1.392-0.002,1.732-0.002c1.506,0,7.467-0.115,7.467-7.301
	C19.2,8.845,18.634,7.634,17.706,6.626z M10.028,16.915H9.972c-3.771,0-6.709-0.449-6.709-4.115c0-0.879,0.31-1.693,1.047-2.369
	c1.227-1.127,3.305-0.531,5.662-0.531c0.01,0,0.02,0,0.029,0c0.01,0,0.018,0,0.027,0c2.357,0,4.436-0.596,5.664,0.531
	c0.735,0.676,1.045,1.49,1.045,2.369C16.737,16.466,13.8,16.915,10.028,16.915z M6.821,11.309c-0.718,0-1.3,0.807-1.3,1.799
	c0,0.994,0.582,1.801,1.3,1.801c0.719,0,1.301-0.807,1.301-1.801C8.122,12.116,7.54,11.309,6.821,11.309z"/>
</symbol><symbol id="deviantart" viewBox="0 0 20 20">
    <path d="M 12.759766 0 L 10.693359 3.9667969 L 4 3.9667969 L 4 8.9257812 L 8.0488281 8.9257812 L 4 16.693359 L 4 20 L 7.9667969 20 L 10.115234 15.951172 L 16.5625 15.951172 L 16.5625 11.074219 L 12.677734 11.074219 L 16.5625 3.6367188 L 16.5625 0 L 12.759766 0 z ">
</path></symbol><symbol id="linkedin" viewBox="0 0 20 20">
<g>
	<path d="M5,3c0,1.062-0.71,1.976-2.001,1.976C1.784,4.976,1,4.114,1,3.052C1,1.962,1.76,1,3,1C4.24,1,4.976,1.91,5,3z M1,19V6h4v13
		H1z"/>
	<path d="M7,10.444c0-1.545-0.051-2.836-0.102-3.951h3.594l0.178,1.723h0.076c0.506-0.811,1.746-2,3.822-2
		c2.532,0,4.432,1.695,4.432,5.342V19h-4v-6.861c0-1.594-0.607-2.81-2-2.81c-1.062,0-1.594,0.86-1.873,1.569
		C11.025,11.152,11,11.506,11,11.861V19H7V10.444z"/>
</g>
</symbol><symbol id="facebook" viewBox="0 0 20 20">
<path d="M17,1H3C1.9,1,1,1.9,1,3v14c0,1.101,0.9,2,2,2h7v-7H8V9.525h2V7.475c0-2.164,1.212-3.684,3.766-3.684l1.803,0.002v2.605
	h-1.197C13.378,6.398,13,7.144,13,7.836v1.69h2.568L15,12h-2v7h4c1.1,0,2-0.899,2-2V3C19,1.9,18.1,1,17,1z"/>
</symbol></svg>