<?xml version="1.0" encoding="UTF-8" standalone="no"?>
<!-- Created with Inkscape (http://www.inkscape.org/) -->
<svg id="svg2" xmlns:rdf="http://www.w3.org/1999/02/22-rdf-syntax-ns#" xmlns="http://www.w3.org/2000/svg" xml:space="preserve" viewBox="0 0 175 50" version="1.1" xmlns:cc="http://creativecommons.org/ns#" xmlns:dc="http://purl.org/dc/elements/1.1/"><metadata id="metadata8"><rdf:RDF><cc:Work rdf:about=""><dc:format>image/svg+xml</dc:format><dc:type rdf:resource="http://purl.org/dc/dcmitype/StillImage"/><dc:title/></cc:Work></rdf:RDF></metadata><defs id="defs6"/><g id="g10" transform="matrix(1.25,0,0,-1.25,0,50)"><path id="path22" d="m8.8562,22.885c1.802,0,3.6041,0.00008,5.4061-0.0002,0.13364,0,0.26648,0.0084,0.39724,0.03636,0.92492,0.19784,1.5527,1.049,1.4518,1.9672-0.10316,0.93892-0.881,1.631-1.8357,1.6311-3.2832,0.00036-6.5663-0.0008-9.8495,0.0035-0.12512,0.00016-0.17752-0.03864-0.22224-0.15112-0.42412-1.0666-0.746-2.162-0.95172-3.2918-0.04332-0.23792-0.0298-0.19444,0.1682-0.19456,1.8119-0.00084,3.6238-0.00048,5.4358-0.00052m22.196-5.2543c-1.8566,0-3.7132,0.0018-5.5699-0.00072-0.9914-0.0014-1.8017-0.8118-1.8074-1.7993-0.0058-0.99992,0.79576-1.8314,1.7886-1.8327,3.4466-0.0045,6.8932-0.0015,10.34-0.0036,0.09136-0.00004,0.13844,0.02284,0.17208,0.11508,0.39896,1.0929,0.68556,2.2136,0.86132,3.3638,0.02112,0.13828-0.0099,0.16052-0.14068,0.16024-1.8813-0.0042-3.7626-0.0028-5.644-0.0028m-27.996,0.759c0.0442-0.634,0.1473-1.26,0.278-1.881,0.1143-0.543,0.2396-1.084,0.428-1.607,0.006-0.029,0.0094-0.058,0.0183-0.086,0.8742-2.712,2.3356-5.0603,4.3794-7.0441,4.045-3.9261,9.804-5.6119,15.301-4.4353,4.5359,0.97096,8.0979,3.4144,10.713,7.2424,0.02896,0.04244,0.07424,0.07916,0.07256,0.1542h-0.1746c-2.859,0-5.7179-0.00064-8.5768,0.0014-0.19216,0.00012-0.38536,0.01068-0.57624,0.03248-3.0953,0.35324-5.1474,3.3839-4.3288,6.3899,0.601,2.2067,2.6094,3.7391,4.9087,3.7401,3.7625,0.0016,7.525,0.00044,11.288,0.00044,0.04444,0,0.08892,0.0017,0.13328-0.00008,0.0574-0.0023,0.07976,0.02276,0.0754,0.08016-0.03812,0.50156-0.06872,1.0039-0.16148,1.4995-0.04032,0.40724-0.12464,0.80696-0.21308,1.2055-0.1728,0.77864-0.38844,1.5448-0.68288,2.2874-0.218,0.62516-0.4904,1.2269-0.79696,1.8126-1.7758,3.3924-4.3802,5.9396-7.834,7.5927-3.1241,1.4953-6.4146,1.9566-9.8397,1.4614-1.7829-0.25776-3.478-0.80004-5.0876-1.6069-2.5342-1.269-4.6065-3.081-6.2737-5.366-0.0133-0.018-0.0368-0.036-0.0112-0.076h0.16672c2.6665,0,5.333,0.00016,7.9996-0.00028,0.19248-0.00004,0.3844-0.0082,0.57644-0.02804,2.9109-0.29996,4.9846-3.045,4.4734-5.9238-0.4336-2.4419-2.5445-4.2121-5.023-4.2122-3.6936-0.00008-7.3872-0.00004-11.081-0.00004-0.04444,0-0.08912-0.0031-0.13328,0.00052-0.07228,0.0059-0.09456-0.02644-0.092-0.09564,0.01408-0.37976,0.02332-0.75976,0.0752-1.137m36.944,2.5318,0-1.8667c-0.04828-0.02356-0.02804-0.06936-0.02992-0.10456-0.0562-1.0516-0.187-2.0934-0.41104-3.1226-0.917-4.22-2.971-7.7937-6.178-10.681-3.389-3.0514-7.379-4.7391-11.93-5.094-0.117-0.00916-0.242,0.016-0.353-0.04904h-2.2222c-0.0208,0.05196-0.06756,0.03008-0.1024,0.03224-1.244,0.07812-2.4736,0.25632-3.6795,0.57116-4.673,1.22-8.4505,3.7755-11.297,7.6744-2.2258,3.0492-3.4577,6.4768-3.7448,10.243-0.00896,0.1176,0.0146,0.2428-0.05072,0.3534v2.2518c0.0474,0.0154,0.02944,0.05644,0.03216,0.08732,0.03168,0.35888,0.05284,0.71896,0.09432,1.0766,0.2656,2.2894,0.882,4.4809,1.9246,6.537,2.5344,4.9978,6.4598,8.4056,11.775,10.196,1.655,0.5574,3.3633,0.85328,5.1069,0.94716,0.03984,0.0022,0.09036-0.02104,0.11932,0.03032h1.8667c0.02928-0.05156,0.07992-0.02708,0.11964-0.02912,0.93268-0.0482,1.8604-0.14804,2.7742-0.3386,5.8244-1.2146,10.297-4.3648,13.388-9.4429,1.6433-2.7004,2.5297-5.6566,2.7504-8.8115,0.01068-0.15284-0.01484-0.31172,0.0496-0.4594" fill-rule="nonzero" fill="#1d3161"/><g id="g24" transform="matrix(0.04,0,0,0.04,36.833392,22.474112)"><path id="path26" fill-rule="nonzero" fill="#fd9801" d="m0,0c2.319-12.391,3.083-24.949,4.037-37.487,0.109-1.436-0.45-2.062-1.885-2.005-1.109,0.044-2.222,0.002-3.333,0.002-94.063,0-188.13,0.029-282.19-0.011-57.481-0.024-107.69-38.333-122.72-93.502-20.466-75.148,30.837-150.92,108.22-159.75,4.773-0.544,9.603-0.809,14.406-0.812,71.474-0.05,142.95-0.035,214.42-0.035h4.365c0.043-1.875-1.089-2.794-1.814-3.855-65.372-95.702-154.42-156.79-267.82-181.06-137.42-29.416-281.4,12.729-382.52,110.88-51.094,49.594-87.631,108.3-109.48,176.1-0.223,0.691-0.308,1.427-0.457,2.143,100.82,0.009,201.65,0.13,302.47-0.065,19.996-0.039,36.821,6.849,51.33,20.162,10.172,9.334,18.29,20.334,25.672,31.923,11.344,17.811,20.724,36.719,30.84,55.216,9.775,17.873,19.904,35.512,33.355,50.989,18.076,20.799,40.167,31.497,68.416,31.354,104.88-0.52,209.78-0.187,314.68-0.179"/></g><g id="g28" transform="matrix(0.04,0,0,0.04,3.05628,18.386972)"><path id="path30" fill-rule="nonzero" fill="#fd9801" d="m0,0c-1.298,9.431-1.528,18.931-1.88,28.425-0.064,1.73,0.493,2.538,2.3,2.391,1.104-0.09,2.221-0.013,3.332-0.013,92.34,0,184.68-0.001,277.02,0.001,61.961,0.001,114.73,44.256,125.57,105.3,12.78,71.971-39.064,140.6-111.84,148.1-4.802,0.495-9.599,0.7-14.412,0.701-66.663,0.01-133.33,0.007-199.99,0.006h-4.168c-0.639,0.995-0.051,1.432,0.283,1.888,41.678,57.124,93.486,102.43,156.85,134.2,40.239,20.171,82.617,33.728,127.19,40.172,85.628,12.381,167.89,0.849,245.99-36.534,86.344-41.328,151.46-105.01,195.85-189.82,7.664-14.642,14.475-29.686,19.924-45.315-1.48-0.015-2.961-0.045-4.441-0.045-97.501-0.002-195-0.04-292.5,0.034-17.953,0.014-33.964-5.295-48.129-16.254-13.46-10.43-23.61-23.73-32.73-37.91-12.03-18.7-21.83-38.645-32.52-58.092-10.36-18.833-21.04-37.458-36.17-53.036-15.52-15.985-34.02-24.351-56.73-24.297-106.26,0.254-212.53,0.102-318.79,0.095"/></g><g id="g32" transform="matrix(0.04,0,0,0.04,3.05628,18.386972)"><path id="path34" fill-rule="nonzero" fill="#fefefe" d="m0,0c106.26,0.007,212.53,0.159,318.79-0.095,22.711-0.054,41.21,8.312,56.734,24.297,15.128,15.578,25.809,34.203,36.164,53.036,10.693,19.447,20.494,39.393,32.521,58.091,9.12,14.18,19.277,27.482,32.748,37.904,14.165,10.959,30.176,16.268,48.129,16.254,97.5-0.074,195-0.036,292.5-0.034,1.48,0,2.961,0.03,4.441,0.045,7.362-18.562,12.753-37.717,17.073-57.183,2.211-9.964,4.319-19.956,5.327-30.137-104.9-0.007-209.8-0.34-314.69,0.192-28.25,0.144-50.34-10.555-68.416-31.354-13.44-15.477-23.57-33.115-33.34-50.989-10.12-18.497-19.5-37.404-30.84-55.216-7.39-11.589-15.5-22.588-25.67-31.922-14.51-13.314-31.34-20.201-51.34-20.163-100.82,0.195-201.64,0.075-302.47,0.065-4.71,13.089-7.844,26.608-10.701,40.183-3.267,15.526-5.846,31.172-6.951,47.026"/></g><g id="g36" transform="matrix(0.04,0,0,0.04,31.051956,17.630436)"><path id="path38" fill-rule="nonzero" fill="#fd9801" d="m0,0c47.033,0,94.066-0.033,141.1,0.071,3.27,0.007,4.045-0.549,3.517-4.006-4.394-28.755-11.559-56.774-21.533-84.095-0.842-2.306-2.018-2.879-4.303-2.878-86.165,0.052-172.33-0.023-258.5,0.089-24.821,0.032-44.859,20.82-44.715,45.818,0.142,24.688,20.398,44.949,45.183,44.983,46.408,0.064,92.824,0.018,139.24,0.018"/></g><g id="g40" transform="matrix(0.04,0,0,0.04,8.85618,22.88474)"><path id="path42" fill-rule="nonzero" fill="#fd9801" d="m0,0c-45.298,0-90.596-0.008-135.89,0.013-4.95,0.002-5.288-1.084-4.205,4.864,5.143,28.242,13.19,55.628,23.793,82.293,1.118,2.812,2.428,3.783,5.556,3.779,82.08-0.107,164.16-0.078,246.24-0.087,23.87-0.003,43.31-17.304,45.89-40.778,2.52-22.956-13.17-44.234-36.3-49.181-3.26-0.699-6.59-0.909-9.93-0.908-45.048,0.007-90.099,0.005-135.15,0.005"/></g><text id="text2996" style="letter-spacing:0px;word-spacing:0px;" font-weight="normal" xml:space="preserve" transform="scale(1,-1)" font-size="11.01918697px" font-style="normal" y="-16.446312" x="44.892578" font-family="Sans" line-height="125%" fill="#000000"><tspan id="tspan2998" x="44.892578" y="-16.446312"><tspan id="tspan3770" fill="#344777">Photoshop</tspan><tspan id="tspan3768" fill="#2c64eb">Contest</tspan></tspan></text>
</g></svg>
