<?xml version="1.0" encoding="UTF-8" standalone="no"?>
<!-- Created with Inkscape (http://www.inkscape.org/) -->
<svg id="svg2" xmlns:rdf="http://www.w3.org/1999/02/22-rdf-syntax-ns#" xmlns="http://www.w3.org/2000/svg" xml:space="preserve" viewBox="0 0 145 50" version="1.1" xmlns:cc="http://creativecommons.org/ns#" xmlns:dc="http://purl.org/dc/elements/1.1/"><metadata id="metadata8"><rdf:RDF><cc:Work rdf:about=""><dc:format>image/svg+xml</dc:format><dc:type rdf:resource="http://purl.org/dc/dcmitype/StillImage"/><dc:title/></cc:Work></rdf:RDF></metadata><defs id="defs6"/><g id="g10" transform="matrix(1.25,0,0,-1.25,0,50)"><g id="g4215" fill="#304a37" transform="matrix(0.05307292,0,0,0.05307292,39.999998,4.0001057)"><path id="path4217" d="m0,0c0-41.626-33.751-75.37-75.37-75.37h-602.94c-41.621,0-75.365,33.744-75.365,75.37v602.94c0,41.626,33.744,75.371,75.365,75.371h602.94c41.629,0,75.38-33.75,75.38-75.37v-602.94z" fill-rule="nonzero" fill="#304a37"/></g><path id="path4221" fill-rule="nonzero" fill="#c9db3d" d="m37.01,25.346c-9.4371,3.0982-17.268,2.6468-22.43,1.5792l-1.6254,3.3559h-5.9219l2.2565-4.9208c-0.011411-0.0046-0.024573-0.0097-0.035983-0.01428-3.3996-1.39-6.2631-3.783-6.2631-3.783v14.596c0,0.4697,0.3808,0.85044,0.8506,0.85044h32.318c0.46948,0,0.85028-0.38074,0.85028-0.85044v-10.813zm-26.239-3.245,3.252-7.118-7.2281-1.725c-1.536,3.6881,0.83871,7.2326,3.9756,8.8431m26.24-18.26c0-0.46985-0.3808-0.85049-0.85028-0.85049h-32.318c-0.4698,0-0.8506,0.38064-0.8506,0.85049v3.3284l18.685,5.1049-5.5892,11.54c2.1262,0.46094,14.007,2.6954,18.485-3.8142l-7.6517-1.9208-2.4109,5.1362h-6.6558l5.2509-10.551,13.905,3.799v-12.622zm-0.64733,34.339-32.724,0c-1.0041,0-1.818-0.81408-1.818-1.8179v-32.724c0-1.0039,0.81382-1.8183,1.818-1.8183h32.724c1.0039,0,1.818,0.8144,1.818,1.8183v32.724c0,1.0038-0.81408,1.8179-1.818,1.8179"/><path id="path4390" d="m46.171,13.945c-0.18589,0.0043-0.49668,0.03917-0.69064,0.07752s-0.46012,0.12585-0.59147,0.19444-0.34134,0.23267-0.46666,0.36461l-0.22783,0.23991-0.19465,0.42248-0.19465,0.42248v2.4926,2.4926l0.15848,0.4551,0.15848,0.4551,0.28583,0.31638,0.28583,0.31638,0.4181,0.17986,0.41809,0.17986,0.61627,0.0512,0.61627,0.0512,0.80271-0.09644c0.44149-0.05305,0.92628-0.11868,1.0773-0.14586l0.27461-0.04942v1.5764,1.5764l0.2074,0.2074,0.2074,0.2074h0.26117,0.26117l0.2074-0.2074,0.2074-0.2074v-5.5844-5.5844l-0.2074-0.2074-0.2074-0.2074h-0.16144-0.16144l-0.21295,0.16751-0.21295,0.16751-0.05574,0.29722-0.05574,0.29722h-0.07032c-0.0387,0-0.11355-0.05209-0.16639-0.11576-0.05286-0.06367-0.32304-0.21762-0.60046-0.34211l-0.5044-0.22636-0.5717-0.12115-0.5717-0.12115-0.33798,0.0078zm0.33798,1.2641,0.59147-0.0034,0.4832,0.19872c0.26576,0.1093,0.67506,0.32184,0.90957,0.47233l0.42638,0.2736-0.02238,2.5041-0.02238,2.5041-0.59147,0.10189-0.59147,0.10189-0.80271,0.02155-0.80271,0.02155-0.25033-0.12344-0.25033-0.12344-0.19685-0.29241-0.19684-0.29241,0.02472-2.4238,0.02472-2.4238,0.16899-0.1877c0.09295-0.10323,0.24504-0.21882,0.33799-0.25686l0.16899-0.06917,0.59147-0.0034zm8.6768-1.2283-0.81874-0.03814-0.46473,0.08105-0.46472,0.08105-0.53324,0.26056-0.53324,0.26056-0.24358,0.33626-0.24359,0.33626-0.15263,0.4375-0.15263,0.4375,0.0018,2.1124,0.0018,2.1124,0.19853,0.4969,0.19854,0.49691,0.29309,0.32441,0.29309,0.32441,0.43604,0.21021,0.43604,0.21021,0.58474,0.09923,0.58475,0.09923,0.61451-0.05194,0.6145-0.05194,0.42482-0.16142,0.42482-0.16142,0.33598-0.2661,0.33598-0.2661,0.21265-0.44005,0.21265-0.44005,0.08692-0.54922,0.08692-0.54922,0.0006-0.99283,0.0006-0.99282-2.4926,0-2.4926,0,0.0018-0.73934,0.0018-0.73934,0.16079-0.35415,0.16078-0.35415,0.34283-0.1749,0.34283-0.1749,0.62302-0.05267,0.62302-0.05266,0.87828,0.15496c0.48306,0.08522,1.0295,0.15688,1.2143,0.15923l0.33603,0.0043,0.11219-0.23236,0.11219-0.23236-0.111-0.23159-0.111-0.23159-0.21877-0.10485c-0.12032-0.05767-0.493-0.16254-0.82816-0.23304l-0.60939-0.12819-0.81874-0.03814zm-0.38592,4.9387,1.827,0-0.03558,0.74361-0.03558,0.74361-0.16979,0.33372-0.16979,0.33372-0.37211,0.19012-0.37211,0.19012-0.68702,0-0.68702,0-0.36794-0.19457-0.36794-0.19457-0.19457-0.36794-0.19457-0.36794,0-0.70492,0-0.70492,1.827,0zm7.3408-4.9401-0.33798-0.0464-0.25352,0.11441c-0.13944,0.06292-0.29663,0.16776-0.34932,0.23298-0.05269,0.06521-0.54149,1.3923-1.0862,2.9492-0.54474,1.5568-1.1385,3.2457-1.3195,3.7531-0.18097,0.50739-0.32904,0.99391-0.32904,1.0812v0.15864l0.2074,0.2074,0.2074,0.2074h0.23075,0.23076l0.18678-0.17547,0.18678-0.17547,1.1193-3.2954,1.1193-3.2954,0.06818,0.11032c0.0375,0.06068,0.55317,1.537,1.1459,3.2807l1.0777,3.1704,0.19005,0.19012,0.19005,0.19012h0.2426,0.2426l0.18372-0.19556,0.18372-0.19556v-0.18832-0.18832l-1.3088-3.7325-1.3088-3.7325-0.19096-0.18934-0.19096-0.18934-0.33798-0.0464zm4.8985-0.04518-0.13744,0-0.24699,0.24699-0.24699,0.24699,0,3.8576,0,3.8576,0.25687,0.25687,0.25687,0.25687,0.27123-0.05239,0.27123-0.05239,0.14787-0.1781,0.14787-0.1781,0-3.8705,0-3.8705-0.05249-0.13678-0.05249-0.13678-0.23905-0.12362c-0.13148-0.06799-0.3009-0.12362-0.37649-0.12362zm4.5898,0.0093c-0.153,0.0051-0.43027,0.03995-0.61616,0.07746s-0.43832,0.10685-0.56096,0.15407c-0.12264,0.04723-0.35841,0.20478-0.52394,0.35011l-0.30096,0.26424-0.1823,0.48075-0.1823,0.48075-0.04249,1.8589-0.04249,1.8589,0.09159,0.79932,0.09159,0.79932,0.19702,0.38284,0.19702,0.38284,0.35805,0.27309,0.35805,0.27309,0.35555,0.10736,0.35556,0.10736,0.8872-0.0073,0.88721-0.0073,0.76046-0.09939c0.41825-0.05467,1.0361-0.1419,1.3731-0.19385l0.6126-0.09446v-3.9213-3.9213l-0.2074-0.2074-0.2074-0.2074h-0.15403-0.15403l-0.18537,0.12984-0.18537,0.12984-0.08894,0.3303-0.08894,0.3303-0.61057-0.32728-0.61057-0.32728-0.65128-0.13286c-0.3582-0.07307-0.77646-0.12869-0.92945-0.1236zm0.29428,1.2585,0.57246-0.000338,0.48374,0.16979,0.48374,0.16979,0.4436,0.30522,0.4436,0.30522,0,2.5126,0,2.5126-0.78159,0.10706c-0.42987,0.05891-1.0668,0.1114-1.4153,0.11667l-0.63372,0.0096-0.29574-0.1709-0.29574-0.1709-0.14774-0.29286-0.14774-0.29286-0.000211-2.2054-0.000212-2.2054,0.09554-0.27405,0.09553-0.27405,0.26357-0.16072,0.26357-0.16072,0.57246-0.000338zm5.976-1.221-0.21124-0.04837-0.20957,0.10808-0.20957,0.10808-0.10604,0.20957-0.10604,0.20957-0.0013,3.8137-0.0013,3.8137,0.65484,0.09421c0.36017,0.05182,1.1682,0.15461,1.7955,0.22842l1.1407,0.13421,0.52913-0.04663c0.29102-0.02564,0.68301-0.09273,0.87109-0.14908l0.34195-0.10245,0.37018-0.32585,0.37019-0.32585,0.19259-0.48311,0.19259-0.48311,0.0024-3.1872,0.0024-3.1872-0.18824-0.1884-0.18823-0.1884h-0.29949-0.2995l-0.18824,0.1881-0.18824,0.1881-0.04224,3.1453-0.04224,3.1453-0.09779,0.16994c-0.05376,0.09347-0.17627,0.24096-0.27218,0.32776l-0.1744,0.15782-0.36153,0.06847-0.36153,0.06847-0.80271-0.07916c-0.44149-0.04354-0.96308-0.1024-1.1591-0.1308l-0.35638-0.05165-0.02382-3.4106-0.02388-3.4106-0.16899-0.16594-0.169-0.16594-0.21124-0.04837zm8.5594-0.04142c-0.03714,0.0029-0.14905,0.03824-0.24864,0.07843l-0.18107,0.07307-0.13579,0.19386-0.13579,0.19386v3.4033,3.4033h-0.59702-0.59702l-0.18456,0.09714c-0.10151,0.05343-0.2125,0.13898-0.24664,0.19012-0.03414,0.05113-0.06266,0.21439-0.06337,0.36279l-0.0012,0.26982,0.18779,0.13154,0.18779,0.13154h0.65717,0.65717v0.9333,0.93329l0.2074,0.2074,0.2074,0.2074h0.28484,0.28485l0.18372-0.19556,0.18372-0.19556v-0.94513-0.94513h1.2674,1.2674v-0.06809c0-0.03745-0.07954-0.30361-0.17675-0.59147l-0.17675-0.52338h-1.0907-1.0907v-3.4152-3.4152l-0.0525-0.13678-0.0525-0.13678-0.23905-0.12362c-0.13148-0.06799-0.26946-0.12121-0.30662-0.11826zm3.4065,0.18246-1.2493-0.02342,0.06061,0.27691c0.03336,0.1523,0.53089,2.0237,1.1057,4.1587,0.57478,2.135,1.0451,3.8935,1.0451,3.9079s0.80903,0.02618,1.7979,0.02618h1.7979l0.17615-0.12338,0.17615-0.12338,0.09662-0.23573c0.05316-0.12965,0.4915-1.8327,0.97414-3.7846,0.48263-1.9519,0.90369-3.6724,0.93569-3.8234l0.0582-0.27461h-1.2554-1.2554l-0.12437,0.57035-0.12438,0.57035h-1.3476-1.3476l-0.13522-0.54922-0.13522-0.54922-1.2493-0.02342zm2.9054,3.361,0.76046,0,0,0.11471c0,0.06309-0.15236,0.79214-0.33858,1.6201s-0.35547,1.5223-0.37612,1.5429c-0.02064,0.02065-0.06263-0.07151-0.09331-0.20479-0.03066-0.13328-0.20363-0.83949-0.38434-1.5693-0.18071-0.72985-0.32857-1.3667-0.32857-1.4153v-0.0883h0.76046zm5.9123-3.3798-1.2699,0,0.02352,3.9787,0.02352,3.9787,0.23708,0.20387,0.23708,0.20387,2.2189,0,2.2189,0,0.49966-0.09237c0.27482-0.0508,0.6145-0.15031,0.75486-0.22112,0.14035-0.07081,0.34444-0.20986,0.45353-0.30899,0.10908-0.09913,0.28019-0.33232,0.38023-0.51822l0.1819-0.33798v-1.5632-1.5632l-0.18964-0.3548-0.18964-0.3548-0.21568-0.15217c-0.11862-0.0837-0.29192-0.20926-0.3851-0.27902l-0.16941-0.12685,0.7226-1.2127c0.39743-0.66698,0.7226-1.2287,0.7226-1.2484,0-0.01961-0.59774-0.02519-1.3283-0.01239l-1.3283,0.02327-0.66389,1.1196-0.66388,1.1196h-0.50044-0.50044v-1.1407-1.1407h-1.2698zm2.0146,4.4783,0.75091,0,0.26788,0.09338,0.26788,0.09338,0.0827,0.15455,0.0827,0.15455,0,0.38579,0,0.38578-0.16103,0.16104-0.16104,0.16104-0.62055,0.05764c-0.3413,0.0317-0.75363,0.04479-0.91628,0.02908l-0.29574-0.02856-0.02418-0.82383-0.02418-0.82383h0.75091zm7.9593-4.4783-1.2664,0-0.0222,3.063-0.0222,3.063-1.0984,0.01645-1.0984,0.01645-0.0244,0.82788-0.0244,0.82788,0.0971,0.18141,0.0971,0.18141,0.20593,0.09383,0.20593,0.09383,3.3434,0,3.3434,0-0.0586-0.5281c-0.0323-0.29045-0.10322-0.79182-0.15771-1.1142l-0.0991-0.58606-1.0773,0.02162-1.0773,0.02162v-3.09-3.09h-1.2664z" fill="#c9db3d"/></g></svg>
