<?xml version="1.0" encoding="UTF-8" standalone="no"?>
<!-- Created with Inkscape (http://www.inkscape.org/) -->

<svg
   xmlns:dc="http://purl.org/dc/elements/1.1/"
   xmlns:cc="http://creativecommons.org/ns#"
   xmlns:rdf="http://www.w3.org/1999/02/22-rdf-syntax-ns#"
   xmlns:svg="http://www.w3.org/2000/svg"
   xmlns="http://www.w3.org/2000/svg"
   version="1.1"
   width="50"
   height="50"
   id="svg2">
  <metadata
     id="metadata8">
    <rdf:RDF>
      <cc:Work
         rdf:about="">
        <dc:format>image/svg+xml</dc:format>
        <dc:type
           rdf:resource="http://purl.org/dc/dcmitype/StillImage" />
        <dc:title></dc:title>
      </cc:Work>
    </rdf:RDF>
  </metadata>
  <defs
     id="defs6" />
  <path
     d="m 24.625,11.46875 c -7.791942,0 -14.125,6.3298 -14.125,14.15625 0,7.82645 6.333058,14.1875 14.125,14.1875 7.791942,0 14.09375,-6.36105 14.09375,-14.1875 0,-7.82645 -6.301808,-14.15625 -14.09375,-14.15625 z m 0.4375,8.34375 c 3.072645,0 5.53125,2.476249 5.53125,5.5625 0,3.086251 -2.458605,5.625 -5.53125,5.625 C 21.989854,31 19.5,28.461251 19.5,25.375 c 0,-3.086251 2.489854,-5.5625 5.5625,-5.5625 z"
     id="path3022"
     style="fill:#ffffff;fill-opacity:0.19607843" />
  <path
     d="m 24.61318,11.463837 c -7.72938,0 -14.008251,6.247004 -14.108561,13.986737 l 8.983834,0 c -2.46e-4,-0.02085 0,-0.04133 0,-0.06226 0,-3.086251 2.487787,-5.582244 5.560433,-5.582244 3.072645,0 5.560432,2.495993 5.560432,5.582244 0,0.02092 2.46e-4,0.0414 0,0.06226 l 8.112423,0 C 38.621427,17.710841 32.34256,11.463837 24.61318,11.463837 z"
     id="path3024"
     style="fill:#ffffff;fill-opacity:0.19607843" />
  <path
     d="m 26.418246,0.00882538 c -1.532728,0.127793 -1.431604,1.65238292 -1.431604,5.93502402 0,5.9572576 0.760634,5.8074076 1.680579,5.9765286 2.104081,0.386812 6.1899,2.06339 8.029431,4.088111 5.308357,5.842763 4.304697,14.054532 -0.477202,18.759659 -0.963253,0.75287 -1.89455,1.455269 -2.800964,2.095936 -0.01985,0.01404 -0.04243,0.02751 -0.06221,0.0415 -1.801719,0.978152 -3.894009,1.544434 -6.224365,1.556388 -7.563138,0.03879 -13.42388,-5.746788 -13.42388,-13.260423 0,-3.281896 1.764001,-7.998261 3.361157,-8.985544 0.400052,-0.247295 1.589912,0.389815 2.655729,1.411124 2.274041,2.17909 2.274924,2.188456 1.058142,-6.038784 L 17.994639,6.2758794 13.699794,5.5080614 C 11.328997,5.0825284 8.198292,4.5374874 6.7492533,4.3044544 L 4.1142721,3.8894174 5.6496155,5.5288124 7.205707,7.1682074 5.5458761,9.3886544 C 0.98191065,15.474875 -0.89357255,22.752773 0.40040095,29.331167 c 0.538301,2.736654 1.33090675,4.940713 2.40675455,6.765099 0.00299,0.06622 -0.00299,0.05642 0,0.124511 1.6969305,3.115013 6.2032175,8.823401 11.5358235,11.330502 14.338832,6.741331 31.053307,-1.007298 35.022427,-16.248687 0.214019,-0.821827 0.303597,-1.514967 0.311218,-2.075184 2.99e-4,-0.02205 -1.9e-5,-0.04056 0,-0.06226 C 51.687191,16.753788 44.172221,4.3544974 31.314747,1.0049134 28.84974,0.36273738 27.337886,-0.06785162 26.418247,0.00882538 z"
     id="path3026"
     style="fill:#ffffff;fill-opacity:1" />
</svg>
