<?xml version="1.0" encoding="utf-8"?>

<svg xmlns="http://www.w3.org/2000/svg">
  <symbol id="sort-asc" viewBox="0 0 24 24">
    <path d="M 10.94,3.06 4.56,9.44 A 0.62,0.62 67.5 0 0 5,10.5 H 19 A 0.62,0.62 112.5 0 0 19.44,9.44 L 13,3.06 a 1.5,1.5 0 0 0 -2.12,0 z" />
  </symbol>

  <symbol id="sort-desc" viewBox="0 0 24 24">
    <path d="M 4.6,15.03 l 6.32,5.94 a 1.59,1.59 180 0 0 2.18,0 l 6.32,-5.95 A 0.59,0.59 68.37 0 0 19,14 H 5 a 0.59,0.59 111.63 0 0 -0.41,1.02 z" />
  </symbol>

  <symbol id="sort" viewBox="0 0 24 24">
    <path d="M 10.94,3.06 4.56,9.44 A 0.62,0.62 67.5 0 0 5,10.5 H 19 A 0.62,0.62 112.5 0 0 19.44,9.44 L 13,3.06 a 1.5,1.5 0 0 0 -2.12,0 z M 4.6,15.03 l 6.32,5.94 a 1.59,1.59 180 0 0 2.18,0 l 6.32,-5.95 A 0.59,0.59 68.37 0 0 19,14 H 5 a 0.59,0.59 111.63 0 0 -0.41,1.02 z" />
  </symbol>
</svg>
