<?xml version="1.0" encoding="utf-8"?>

<svg xmlns="http://www.w3.org/2000/svg">
  <defs>
    <clipPath id="background-clip" clipPathUnits="userSpaceOnUse">
      <path d="M-854.699-540.836h209.001v109.726h-209.001z" style="fill:#fff;stroke-width:4.1841" transform="rotate(163.715)"/>
    </clipPath>
  </defs>

  <symbol id="background" width="1200" height="630" viewBox="56.409 53.858 1200 630">
    <g clip-path="url(#background-clip)" transform="rotate(16.285 6636.493 -13969.392)scale(5.74159)">
      <path d="m633.144 234.633-12.402-21.482h24.804z" fill="#080808" stroke="#2a2a2a" stroke-width=".666667"/>
      <path d="m645.546 213.151-12.402-21.48h24.804zM633.144 191.671l-12.402-21.48h24.804z" fill="#111" stroke="#2a2a2a" stroke-width=".666667"/>
      <path d="m657.948 191.671-12.402-21.48h24.803z" fill="#080808" stroke="#2a2a2a" stroke-width=".666667"/>
      <path d="m657.948 191.671-12.402-21.48-12.402 21.48z" fill="#111" stroke="#2a2a2a" stroke-width=".666667"/>
      <path d="m645.546 213.151-12.402-21.48-12.402 21.48z" fill="#191919" stroke="#2a2a2a" stroke-width=".666667"/>
      <path d="m769.561 342.033-12.401-21.48h24.802z" fill="#080808" stroke="#2a2a2a" stroke-width=".666667"/>
      <path d="m757.16 320.553-12.402-21.48h24.803z" fill="#111" stroke="#2a2a2a" stroke-width=".666667"/>
      <path d="m781.962 320.553-12.401-21.48h24.804z" fill="#191919" stroke="#2a2a2a" stroke-width=".666667"/>
      <path d="m781.962 320.553-12.401-21.48-12.401 21.48z" fill="#080808" stroke="#2a2a2a" stroke-width=".666667"/>
      <path d="m744.758 299.073-12.401-21.48h24.803z" fill="#191919" stroke="#2a2a2a" stroke-width=".666667"/>
      <path d="m732.357 277.593-12.401-21.48h24.802z" fill="#111" stroke="#2a2a2a" stroke-width=".666667"/>
      <path d="m757.16 277.593-12.402-21.48h24.803z" fill="#080808" stroke="#2a2a2a" stroke-width=".666667"/>
      <path d="m757.16 277.593-12.402-21.48-12.401 21.48z" fill="#191919" stroke="#2a2a2a" stroke-width=".666667"/>
      <path d="m794.365 299.073-12.403-21.48h24.804z" fill="#111" stroke="#2a2a2a" stroke-width=".666667"/>
      <path d="m781.962 277.593-12.401-21.48h24.804zM806.766 277.593l-12.401-21.48h24.803z" fill="#191919" stroke="#2a2a2a" stroke-width=".666667"/>
      <path d="m806.766 277.593-12.401-21.48-12.403 21.48z" fill="#111" stroke="#2a2a2a" stroke-width=".666667"/>
      <path d="m794.365 299.073-12.403-21.48-12.401 21.48z" fill="#191919" stroke="#2a2a2a" stroke-width=".666667"/>
      <path d="m781.962 277.593-12.401-21.48-12.401 21.48z" fill="#080808" stroke="#2a2a2a" stroke-width=".666667"/>
      <path d="m769.561 299.073-12.401-21.48-12.402 21.48z" fill="#191919" stroke="#2a2a2a" stroke-width=".666667"/>
      <path d="m769.561 299.073-12.401-21.48h24.802z" fill="#111" stroke="#2a2a2a" stroke-width=".666667"/>
      <path d="m719.956 256.113-12.403-21.48h24.804zM707.553 234.633l-12.401-21.482h24.804z" fill="#191919" stroke="#2a2a2a" stroke-width=".666667"/>
      <path d="m732.357 234.633-12.401-21.482h24.802z" fill="#080808" stroke="#2a2a2a" stroke-width=".666667"/>
      <path d="m732.357 234.633-12.401-21.482-12.403 21.482zM695.152 213.151l-12.402-21.48h24.803zM682.75 191.671l-12.401-21.48h24.803z" fill="#191919" stroke="#2a2a2a" stroke-width=".666667"/>
      <path d="m707.553 191.671-12.401-21.48h24.804z" fill="#111" stroke="#2a2a2a" stroke-width=".666667"/>
      <path d="m707.553 191.671-12.401-21.48-12.402 21.48zM744.758 213.151l-12.401-21.48h24.803z" fill="#111" stroke="#2a2a2a" stroke-width=".666667"/>
      <path d="m732.357 191.671-12.401-21.48h24.802z" fill="#191919" stroke="#2a2a2a" stroke-width=".666667"/>
      <path d="m757.16 191.671-12.402-21.48h24.803z" fill="#111" stroke="#2a2a2a" stroke-width=".666667"/>
      <path d="m757.16 191.671-12.402-21.48-12.401 21.48zM744.758 213.151l-12.401-21.48-12.401 21.48zM732.357 191.671l-12.401-21.48-12.403 21.48z" fill="#080808" stroke="#2a2a2a" stroke-width=".666667"/>
      <path d="m719.956 213.151-12.403-21.48-12.401 21.48z" fill="#111" stroke="#2a2a2a" stroke-width=".666667"/>
      <path d="m719.956 213.151-12.403-21.48h24.804z" fill="#191919" stroke="#2a2a2a" stroke-width=".666667"/>
      <path d="m819.168 256.113-12.402-21.48h24.803zM806.766 234.633l-12.401-21.482h24.803z" fill="#111" stroke="#2a2a2a" stroke-width=".666667"/>
      <path d="m831.569 234.633-12.401-21.482h24.802z" fill="#080808" stroke="#2a2a2a" stroke-width=".666667"/>
      <path d="m831.569 234.633-12.401-21.482-12.402 21.482z" fill="#080808" stroke="#2a2a2a" stroke-width=".666667"/>
      <path d="m794.365 213.151-12.403-21.48h24.804z" fill="#111" stroke="#2a2a2a" stroke-width=".666667"/>
      <path d="m781.962 191.671-12.401-21.48h24.804z" fill="#080808" stroke="#2a2a2a" stroke-width=".666667"/>
      <path d="m806.766 191.671-12.401-21.48h24.803z" fill="#191919" stroke="#2a2a2a" stroke-width=".666667"/>
      <path d="m806.766 191.671-12.401-21.48-12.403 21.48z" fill="#080808" stroke="#2a2a2a" stroke-width=".666667"/>
      <path d="m843.97 213.151-12.401-21.48h24.803z" fill="#111" stroke="#2a2a2a" stroke-width=".666667"/>
      <path d="m831.569 191.671-12.401-21.48h24.802z" fill="#080808" stroke="#2a2a2a" stroke-width=".666667"/>
      <path d="m856.372 191.671-12.402-21.48h24.804z" fill="#080808" stroke="#2a2a2a" stroke-width=".666667"/>
      <path d="m856.372 191.671-12.402-21.48-12.401 21.48z" fill="#191919" stroke="#2a2a2a" stroke-width=".666667"/>
      <path d="m843.97 213.151-12.401-21.48-12.401 21.48zM831.569 191.671l-12.401-21.48-12.402 21.48zM819.168 213.151l-12.402-21.48-12.401 21.48z" fill="#080808" stroke="#2a2a2a" stroke-width=".666667"/>
      <path d="m819.168 213.151-12.402-21.48h24.803zM819.168 256.113l-12.402-21.48-12.401 21.48zM806.766 234.633l-12.401-21.482-12.403 21.482z" fill="#111" stroke="#2a2a2a" stroke-width=".666667"/>
      <path d="m794.365 256.113-12.403-21.48-12.401 21.48z" fill="#080808" stroke="#2a2a2a" stroke-width=".666667"/>
      <path d="m794.365 256.113-12.403-21.48h24.804z" fill="#111" stroke="#2a2a2a" stroke-width=".666667"/>
      <path d="m794.365 213.151-12.403-21.48-12.401 21.48z" fill="#191919" stroke="#2a2a2a" stroke-width=".666667"/>
      <path d="m781.962 191.671-12.401-21.48-12.401 21.48z" fill="#080808" stroke="#2a2a2a" stroke-width=".666667"/>
      <path d="m769.561 213.151-12.401-21.48-12.402 21.48z" fill="#191919" stroke="#2a2a2a" stroke-width=".666667"/>
      <path d="m769.561 213.151-12.401-21.48h24.802z" fill="#111" stroke="#2a2a2a" stroke-width=".666667"/>
      <path d="m769.561 256.113-12.401-21.48-12.402 21.48z" fill="#080808" stroke="#2a2a2a" stroke-width=".666667"/>
      <path d="m757.16 234.633-12.402-21.482-12.401 21.482z" fill="#191919" stroke="#2a2a2a" stroke-width=".666667"/>
      <path d="m744.758 256.113-12.401-21.48-12.401 21.48z" fill="#111" stroke="#2a2a2a" stroke-width=".666667"/>
      <path d="m744.758 256.113-12.401-21.48h24.803zM769.561 256.113l-12.401-21.48h24.802z" fill="#191919" stroke="#2a2a2a" stroke-width=".666667"/>
      <path d="m757.16 234.633-12.402-21.482h24.803z" fill="#111" stroke="#2a2a2a" stroke-width=".666667"/>
      <path d="m781.962 234.633-12.401-21.482h24.804z" fill="#191919" stroke="#2a2a2a" stroke-width=".666667"/>
      <path d="m781.962 234.633-12.401-21.482-12.401 21.482z" fill="#080808" stroke="#2a2a2a" stroke-width=".666667"/>
      <path d="m967.986 342.033-12.401-21.48h24.803z" fill="#191919" stroke="#2a2a2a" stroke-width=".666667"/>
      <path d="m955.585 320.553-12.401-21.48h24.802z" fill="#111" stroke="#2a2a2a" stroke-width=".666667"/>
      <path d="m980.388 320.553-12.402-21.48h24.803z" fill="#191919" stroke="#2a2a2a" stroke-width=".666667"/>
      <path d="m980.388 320.553-12.402-21.48-12.401 21.48z" fill="#191919" stroke="#2a2a2a" stroke-width=".666667"/>
      <path d="m943.184 299.073-12.402-21.48h24.803z" fill="#080808" stroke="#2a2a2a" stroke-width=".666667"/>
      <path d="m930.782 277.593-12.402-21.48h24.804zM955.585 277.593l-12.401-21.48h24.802z" fill="#191919" stroke="#2a2a2a" stroke-width=".666667"/>
      <path d="m955.585 277.593-12.401-21.48-12.402 21.48z" fill="#191919" stroke="#2a2a2a" stroke-width=".666667"/>
      <path d="m992.789 299.073-12.401-21.48h24.804z" fill="#111" stroke="#2a2a2a" stroke-width=".666667"/>
      <path d="m980.388 277.593-12.402-21.48h24.803zM1005.192 277.593l-12.403-21.48h24.804z" fill="#111" stroke="#2a2a2a" stroke-width=".666667"/>
      <path d="m1005.192 277.593-12.403-21.48-12.401 21.48z" fill="#191919" stroke="#2a2a2a" stroke-width=".666667"/>
      <path d="m992.789 299.073-12.401-21.48-12.402 21.48z" fill="#111" stroke="#2a2a2a" stroke-width=".666667"/>
      <path d="m980.388 277.593-12.402-21.48-12.401 21.48z" fill="#080808" stroke="#2a2a2a" stroke-width=".666667"/>
      <path d="m967.986 299.073-12.401-21.48-12.401 21.48z" fill="#080808" stroke="#2a2a2a" stroke-width=".666667"/>
      <path d="m967.986 299.073-12.401-21.48h24.803z" fill="#080808" stroke="#2a2a2a" stroke-width=".666667"/>
      <path d="m918.38 256.113-12.402-21.48h24.804z" fill="#111" stroke="#2a2a2a" stroke-width=".666667"/>
      <path d="m905.978 234.633-12.401-21.482h24.803z" fill="#191919" stroke="#2a2a2a" stroke-width=".666667"/>
      <path d="M930.782 234.633 918.38 213.15h24.804z" fill="#111" stroke="#2a2a2a" stroke-width=".666667"/>
      <path d="M930.782 234.633 918.38 213.15l-12.402 21.482Z" fill="#111" stroke="#2a2a2a" stroke-width=".666667"/>
      <path d="m893.577 213.151-12.401-21.48h24.802zM881.176 191.671l-12.402-21.48h24.803z" fill="#080808" stroke="#2a2a2a" stroke-width=".666667"/>
      <path d="m905.978 191.671-12.401-21.48h24.803z" fill="#111" stroke="#2a2a2a" stroke-width=".666667"/>
      <path d="m905.978 191.671-12.401-21.48-12.401 21.48z" fill="#080808" stroke="#2a2a2a" stroke-width=".666667"/>
      <path d="m943.184 213.151-12.402-21.48h24.803z" fill="#191919" stroke="#2a2a2a" stroke-width=".666667"/>
      <path d="m930.782 191.671-12.402-21.48h24.804z" fill="#080808" stroke="#2a2a2a" stroke-width=".666667"/>
      <path d="m955.585 191.671-12.401-21.48h24.802z" fill="#111" stroke="#2a2a2a" stroke-width=".666667"/>
      <path d="m955.585 191.671-12.401-21.48-12.402 21.48zM943.184 213.151l-12.402-21.48-12.402 21.48z" fill="#080808" stroke="#2a2a2a" stroke-width=".666667"/>
      <path d="m930.782 191.671-12.402-21.48-12.402 21.48z" fill="#191919" stroke="#2a2a2a" stroke-width=".666667"/>
      <path d="m918.38 213.151-12.402-21.48-12.401 21.48z" fill="#080808" stroke="#2a2a2a" stroke-width=".666667"/>
      <path d="m918.38 213.151-12.402-21.48h24.804zM1017.593 256.113l-12.401-21.48h24.802z" fill="#080808" stroke="#2a2a2a" stroke-width=".666667"/>
      <path d="m1005.192 234.633-12.403-21.482h24.804ZM1029.994 234.633l-12.401-21.482h24.803z" fill="#111" stroke="#2a2a2a" stroke-width=".666667"/>
      <path d="m1029.994 234.633-12.401-21.482-12.401 21.482z" fill="#111" stroke="#2a2a2a" stroke-width=".666667"/>
      <path d="m992.789 213.151-12.401-21.48h24.804z" fill="#080808" stroke="#2a2a2a" stroke-width=".666667"/>
      <path d="m980.388 191.671-12.402-21.48h24.803z" fill="#111" stroke="#2a2a2a" stroke-width=".666667"/>
      <path d="m1005.192 191.671-12.403-21.48h24.804z" fill="#191919" stroke="#2a2a2a" stroke-width=".666667"/>
      <path d="m1005.192 191.671-12.403-21.48-12.401 21.48z" fill="#080808" stroke="#2a2a2a" stroke-width=".666667"/>
      <path d="m1042.396 213.151-12.402-21.48h24.804z" fill="#191919" stroke="#2a2a2a" stroke-width=".666667"/>
      <path d="m1029.994 191.671-12.401-21.48h24.803z" fill="#111" stroke="#2a2a2a" stroke-width=".666667"/>
      <path d="m1054.798 191.671-12.402-21.48h24.804z" fill="#080808" stroke="#2a2a2a" stroke-width=".666667"/>
      <path d="m1054.798 191.671-12.402-21.48-12.402 21.48z" fill="#191919" stroke="#2a2a2a" stroke-width=".666667"/>
      <path d="m1042.396 213.151-12.402-21.48-12.401 21.48z" fill="#111" stroke="#2a2a2a" stroke-width=".666667"/>
      <path d="m1029.994 191.671-12.401-21.48-12.401 21.48zM1017.593 213.151l-12.401-21.48-12.403 21.48z" fill="#191919" stroke="#2a2a2a" stroke-width=".666667"/>
      <path d="m1017.593 213.151-12.401-21.48h24.802z" fill="#111" stroke="#2a2a2a" stroke-width=".666667"/>
      <path d="m1017.593 256.113-12.401-21.48-12.403 21.48z" fill="#191919" stroke="#2a2a2a" stroke-width=".666667"/>
      <path d="m1005.192 234.633-12.403-21.482-12.401 21.482z" fill="#080808" stroke="#2a2a2a" stroke-width=".666667"/>
      <path d="m992.789 256.113-12.401-21.48-12.402 21.48z" fill="#191919" stroke="#2a2a2a" stroke-width=".666667"/>
      <path d="m992.789 256.113-12.401-21.48h24.804z" fill="#111" stroke="#2a2a2a" stroke-width=".666667"/>
      <path d="m992.789 213.151-12.401-21.48-12.402 21.48zM980.388 191.671l-12.402-21.48-12.401 21.48z" fill="#191919" stroke="#2a2a2a" stroke-width=".666667"/>
      <path d="m967.986 213.151-12.401-21.48-12.401 21.48z" fill="#080808" stroke="#2a2a2a" stroke-width=".666667"/>
      <path d="m967.986 213.151-12.401-21.48h24.803zM967.986 256.113l-12.401-21.48-12.401 21.48zM955.585 234.633l-12.401-21.482-12.402 21.482Z" fill="#191919" stroke="#2a2a2a" stroke-width=".666667"/>
      <path d="m943.184 256.113-12.402-21.48-12.402 21.48z" fill="#111" stroke="#2a2a2a" stroke-width=".666667"/>
      <path d="m943.184 256.113-12.402-21.48h24.803zM967.986 256.113l-12.401-21.48h24.803z" fill="#111" stroke="#2a2a2a" stroke-width=".666667"/>
      <path d="m955.585 234.633-12.401-21.482h24.802Z" fill="#191919" stroke="#2a2a2a" stroke-width=".666667"/>
      <path d="m980.388 234.633-12.402-21.482h24.803z" fill="#111" stroke="#2a2a2a" stroke-width=".666667"/>
      <path d="m980.388 234.633-12.402-21.482-12.401 21.482ZM967.986 342.033l-12.401-21.48-12.401 21.48zM955.585 320.553l-12.401-21.48-12.402 21.48z" fill="#080808" stroke="#2a2a2a" stroke-width=".666667"/>
      <path d="m943.184 342.033-12.402-21.48-12.402 21.48z" fill="#111" stroke="#2a2a2a" stroke-width=".666667"/>
      <path d="m943.184 342.033-12.402-21.48h24.803z" fill="#191919" stroke="#2a2a2a" stroke-width=".666667"/>
      <path d="m943.184 299.073-12.402-21.48-12.402 21.48z" fill="#111" stroke="#2a2a2a" stroke-width=".666667"/>
      <path d="m930.782 277.593-12.402-21.48-12.402 21.48z" fill="#111" stroke="#2a2a2a" stroke-width=".666667"/>
      <path d="m918.38 299.073-12.402-21.48-12.401 21.48z" fill="#080808" stroke="#2a2a2a" stroke-width=".666667"/>
      <path d="m918.38 299.073-12.402-21.48h24.804z" fill="#080808" stroke="#2a2a2a" stroke-width=".666667"/>
      <path d="m918.38 342.033-12.402-21.48-12.401 21.48z" fill="#111" stroke="#2a2a2a" stroke-width=".666667"/>
      <path d="m905.978 320.553-12.401-21.48-12.401 21.48z" fill="#080808" stroke="#2a2a2a" stroke-width=".666667"/>
      <path d="m893.577 342.033-12.401-21.48-12.402 21.48z" fill="#191919" stroke="#2a2a2a" stroke-width=".666667"/>
      <path d="m893.577 342.033-12.401-21.48h24.802z" fill="#080808" stroke="#2a2a2a" stroke-width=".666667"/>
      <path d="m918.38 342.033-12.402-21.48h24.804z" fill="#111" stroke="#2a2a2a" stroke-width=".666667"/>
      <path d="m905.978 320.553-12.401-21.48h24.803zM930.782 320.553l-12.402-21.48h24.804z" fill="#080808" stroke="#2a2a2a" stroke-width=".666667"/>
      <path d="m930.782 320.553-12.402-21.48-12.402 21.48z" fill="#191919" stroke="#2a2a2a" stroke-width=".666667"/>
      <path d="m918.38 256.113-12.402-21.48-12.401 21.48zM905.978 234.633l-12.401-21.482-12.401 21.482zM893.577 256.113l-12.401-21.48-12.402 21.48z" fill="#080808" stroke="#2a2a2a" stroke-width=".666667"/>
      <path d="m893.577 256.113-12.401-21.48h24.802zM893.577 213.151l-12.401-21.48-12.402 21.48zM881.176 191.671l-12.402-21.48-12.402 21.48z" fill="#111" stroke="#2a2a2a" stroke-width=".666667"/>
      <path d="m868.774 213.151-12.402-21.48-12.402 21.48z" fill="#080808" stroke="#2a2a2a" stroke-width=".666667"/>
      <path d="m868.774 213.151-12.402-21.48h24.804z" fill="#111" stroke="#2a2a2a" stroke-width=".666667"/>
      <path d="m868.774 256.113-12.402-21.48-12.402 21.48z" fill="#191919" stroke="#2a2a2a" stroke-width=".666667"/>
      <path d="M856.372 234.633 843.97 213.15l-12.401 21.482z" fill="#080808" stroke="#2a2a2a" stroke-width=".666667"/>
      <path d="m843.97 256.113-12.401-21.48-12.401 21.48z" fill="#191919" stroke="#2a2a2a" stroke-width=".666667"/>
      <path d="m843.97 256.113-12.401-21.48h24.803z" fill="#111" stroke="#2a2a2a" stroke-width=".666667"/>
      <path d="m868.774 256.113-12.402-21.48h24.804z" fill="#080808" stroke="#2a2a2a" stroke-width=".666667"/>
      <path d="M856.372 234.633 843.97 213.15h24.804z" fill="#191919" stroke="#2a2a2a" stroke-width=".666667"/>
      <path d="m881.176 234.633-12.402-21.482h24.803z" fill="#111" stroke="#2a2a2a" stroke-width=".666667"/>
      <path d="m881.176 234.633-12.402-21.482-12.402 21.482zM868.774 342.033l-12.402-21.48-12.402 21.48z" fill="#191919" stroke="#2a2a2a" stroke-width=".666667"/>
      <path d="m856.372 320.553-12.402-21.48-12.401 21.48z" fill="#111" stroke="#2a2a2a" stroke-width=".666667"/>
      <path d="m843.97 342.033-12.401-21.48-12.401 21.48z" fill="#191919" stroke="#2a2a2a" stroke-width=".666667"/>
      <path d="m843.97 342.033-12.401-21.48h24.803z" fill="#080808" stroke="#2a2a2a" stroke-width=".666667"/>
      <path d="m843.97 299.073-12.401-21.48-12.401 21.48z" fill="#191919" stroke="#2a2a2a" stroke-width=".666667"/>
      <path d="m831.569 277.593-12.401-21.48-12.402 21.48z" fill="#111" stroke="#2a2a2a" stroke-width=".666667"/>
      <path d="m819.168 299.073-12.402-21.48-12.401 21.48z" fill="#191919" stroke="#2a2a2a" stroke-width=".666667"/>
      <path d="m819.168 299.073-12.402-21.48h24.803z" fill="#191919" stroke="#2a2a2a" stroke-width=".666667"/>
      <path d="m819.168 342.033-12.402-21.48-12.401 21.48z" fill="#080808" stroke="#2a2a2a" stroke-width=".666667"/>
      <path d="m806.766 320.553-12.401-21.48-12.403 21.48zM794.365 342.033l-12.403-21.48-12.401 21.48z" fill="#191919" stroke="#2a2a2a" stroke-width=".666667"/>
      <path d="m794.365 342.033-12.403-21.48h24.804z" fill="#191919" stroke="#2a2a2a" stroke-width=".666667"/>
      <path d="m819.168 342.033-12.402-21.48h24.803zM806.766 320.553l-12.401-21.48h24.803zM831.569 320.553l-12.401-21.48h24.802z" fill="#111" stroke="#2a2a2a" stroke-width=".666667"/>
      <path d="m831.569 320.553-12.401-21.48-12.402 21.48z" fill="#191919" stroke="#2a2a2a" stroke-width=".666667"/>
      <path d="m868.774 342.033-12.402-21.48h24.804z" fill="#111" stroke="#2a2a2a" stroke-width=".666667"/>
      <path d="m856.372 320.553-12.402-21.48h24.804zM881.176 320.553l-12.402-21.48h24.803z" fill="#080808" stroke="#2a2a2a" stroke-width=".666667"/>
      <path d="m881.176 320.553-12.402-21.48-12.402 21.48z" fill="#080808" stroke="#2a2a2a" stroke-width=".666667"/>
      <path d="m843.97 299.073-12.401-21.48h24.803z" fill="#111" stroke="#2a2a2a" stroke-width=".666667"/>
      <path d="m831.569 277.593-12.401-21.48h24.802z" fill="#191919" stroke="#2a2a2a" stroke-width=".666667"/>
      <path d="m856.372 277.593-12.402-21.48h24.804z" fill="#111" stroke="#2a2a2a" stroke-width=".666667"/>
      <path d="m856.372 277.593-12.402-21.48-12.401 21.48z" fill="#111" stroke="#2a2a2a" stroke-width=".666667"/>
      <path d="m893.577 299.073-12.401-21.48h24.802z" fill="#080808" stroke="#2a2a2a" stroke-width=".666667"/>
      <path d="m881.176 277.593-12.402-21.48h24.803z" fill="#080808" stroke="#2a2a2a" stroke-width=".666667"/>
      <path d="m905.978 277.593-12.401-21.48h24.803z" fill="#111" stroke="#2a2a2a" stroke-width=".666667"/>
      <path d="m905.978 277.593-12.401-21.48-12.401 21.48z" fill="#080808" stroke="#2a2a2a" stroke-width=".666667"/>
      <path d="m893.577 299.073-12.401-21.48-12.402 21.48z" fill="#191919" stroke="#2a2a2a" stroke-width=".666667"/>
      <path d="m881.176 277.593-12.402-21.48-12.402 21.48z" fill="#080808" stroke="#2a2a2a" stroke-width=".666667"/>
      <path d="m868.774 299.073-12.402-21.48-12.402 21.48z" fill="#111" stroke="#2a2a2a" stroke-width=".666667"/>
      <path d="m868.774 299.073-12.402-21.48h24.804zM769.561 342.033l-12.401-21.48-12.402 21.48z" fill="#080808" stroke="#2a2a2a" stroke-width=".666667"/>
      <path d="m757.16 320.553-12.402-21.48-12.401 21.48z" fill="#191919" stroke="#2a2a2a" stroke-width=".666667"/>
      <path d="m744.758 342.033-12.401-21.48-12.401 21.48z" fill="#111" stroke="#2a2a2a" stroke-width=".666667"/>
      <path d="m744.758 342.033-12.401-21.48h24.803zM744.758 299.073l-12.401-21.48-12.401 21.48z" fill="#191919" stroke="#2a2a2a" stroke-width=".666667"/>
      <path d="m732.357 277.593-12.401-21.48-12.403 21.48z" fill="#111" stroke="#2a2a2a" stroke-width=".666667"/>
      <path d="m719.956 299.073-12.403-21.48-12.401 21.48z" fill="#191919" stroke="#2a2a2a" stroke-width=".666667"/>
      <path d="m719.956 299.073-12.403-21.48h24.804z" fill="#080808" stroke="#2a2a2a" stroke-width=".666667"/>
      <path d="m719.956 342.033-12.403-21.48-12.401 21.48z" fill="#191919" stroke="#2a2a2a" stroke-width=".666667"/>
      <path d="m707.553 320.553-12.401-21.48-12.402 21.48z" fill="#111" stroke="#2a2a2a" stroke-width=".666667"/>
      <path d="m695.152 342.033-12.402-21.48-12.401 21.48z" fill="#191919" stroke="#2a2a2a" stroke-width=".666667"/>
      <path d="m695.152 342.033-12.402-21.48h24.803z" fill="#191919" stroke="#2a2a2a" stroke-width=".666667"/>
      <path d="m719.956 342.033-12.403-21.48h24.804z" fill="#080808" stroke="#2a2a2a" stroke-width=".666667"/>
      <path d="m707.553 320.553-12.401-21.48h24.804zM732.357 320.553l-12.401-21.48h24.802z" fill="#191919" stroke="#2a2a2a" stroke-width=".666667"/>
      <path d="m732.357 320.553-12.401-21.48-12.403 21.48z" fill="#191919" stroke="#2a2a2a" stroke-width=".666667"/>
      <path d="m719.956 256.113-12.403-21.48-12.401 21.48zM707.553 234.633l-12.401-21.482-12.402 21.482zM695.152 256.113l-12.402-21.48-12.401 21.48z" fill="#111" stroke="#2a2a2a" stroke-width=".666667"/>
      <path d="m695.152 256.113-12.402-21.48h24.803z" fill="#191919" stroke="#2a2a2a" stroke-width=".666667"/>
      <path d="m695.152 213.151-12.402-21.48-12.401 21.48z" fill="#111" stroke="#2a2a2a" stroke-width=".666667"/>
      <path d="m682.75 191.671-12.401-21.48-12.401 21.48zM670.349 213.151l-12.401-21.48-12.402 21.48z" fill="#080808" stroke="#2a2a2a" stroke-width=".666667"/>
      <path d="m670.349 213.151-12.401-21.48h24.802z" fill="#080808" stroke="#2a2a2a" stroke-width=".666667"/>
      <path d="m670.349 256.113-12.401-21.48-12.402 21.48z" fill="#111" stroke="#2a2a2a" stroke-width=".666667"/>
      <path d="m657.948 234.633-12.402-21.482-12.402 21.482z" fill="#191919" stroke="#2a2a2a" stroke-width=".666667"/>
      <path d="m645.546 256.113-12.402-21.48-12.402 21.48z" fill="#111" stroke="#2a2a2a" stroke-width=".666667"/>
      <path d="m645.546 256.113-12.402-21.48h24.804z" fill="#111" stroke="#2a2a2a" stroke-width=".666667"/>
      <path d="m670.349 256.113-12.401-21.48h24.802zM657.948 234.633l-12.402-21.482h24.803z" fill="#080808" stroke="#2a2a2a" stroke-width=".666667"/>
      <path d="M682.75 234.633 670.35 213.15h24.803z" fill="#111" stroke="#2a2a2a" stroke-width=".666667"/>
      <path d="M682.75 234.633 670.35 213.15l-12.401 21.482z" fill="#080808" stroke="#2a2a2a" stroke-width=".666667"/>
      <path d="m670.349 342.033-12.401-21.48-12.402 21.48z" fill="#191919" stroke="#2a2a2a" stroke-width=".666667"/>
      <path d="m657.948 320.553-12.402-21.48-12.402 21.48z" fill="#080808" stroke="#2a2a2a" stroke-width=".666667"/>
      <path d="m645.546 342.033-12.402-21.48-12.402 21.48z" fill="#111" stroke="#2a2a2a" stroke-width=".666667"/>
      <path d="m645.546 342.033-12.402-21.48h24.804zM645.546 299.073l-12.402-21.48-12.402 21.48z" fill="#080808" stroke="#2a2a2a" stroke-width=".666667"/>
      <path d="m633.144 320.553-12.402-21.48h24.804zM670.349 342.033l-12.401-21.48h24.802z" fill="#191919" stroke="#2a2a2a" stroke-width=".666667"/>
      <path d="m657.948 320.553-12.402-21.48h24.803z" fill="#111" stroke="#2a2a2a" stroke-width=".666667"/>
      <path d="m682.75 320.553-12.401-21.48h24.803z" fill="#080808" stroke="#2a2a2a" stroke-width=".666667"/>
      <path d="m682.75 320.553-12.401-21.48-12.401 21.48z" fill="#191919" stroke="#2a2a2a" stroke-width=".666667"/>
      <path d="m645.546 299.073-12.402-21.48h24.804z" fill="#111" stroke="#2a2a2a" stroke-width=".666667"/>
      <path d="m633.144 277.593-12.402-21.48h24.804zM657.948 277.593l-12.402-21.48h24.803z" fill="#191919" stroke="#2a2a2a" stroke-width=".666667"/>
      <path d="m657.948 277.593-12.402-21.48-12.402 21.48z" fill="#111" stroke="#2a2a2a" stroke-width=".666667"/>
      <path d="m695.152 299.073-12.402-21.48h24.803z" fill="#191919" stroke="#2a2a2a" stroke-width=".666667"/>
      <path d="m682.75 277.593-12.401-21.48h24.803z" fill="#080808" stroke="#2a2a2a" stroke-width=".666667"/>
      <path d="m707.553 277.593-12.401-21.48h24.804z" fill="#191919" stroke="#2a2a2a" stroke-width=".666667"/>
      <path d="m707.553 277.593-12.401-21.48-12.402 21.48z" fill="#111" stroke="#2a2a2a" stroke-width=".666667"/>
      <path d="m695.152 299.073-12.402-21.48-12.401 21.48z" fill="#191919" stroke="#2a2a2a" stroke-width=".666667"/>
      <path d="m682.75 277.593-12.401-21.48-12.401 21.48z" fill="#191919" stroke="#2a2a2a" stroke-width=".666667"/>
      <path d="m670.349 299.073-12.401-21.48-12.402 21.48z" fill="#080808" stroke="#2a2a2a" stroke-width=".666667"/>
      <path d="m670.349 299.073-12.401-21.48h24.802z" fill="#191919" stroke="#2a2a2a" stroke-width=".666667"/>
      <path d="m1079.601 191.671-12.401-21.48h24.802z" fill="#080808" stroke="#2a2a2a" stroke-width=".666667"/>
      <path d="m1092.002 342.033-12.401-21.48-12.401 21.48zM1092.002 256.113l-12.401-21.48-12.401 21.48zM1092.002 213.151l-12.401-21.48-12.401 21.48z" fill="#191919" stroke="#2a2a2a" stroke-width=".666667"/>
      <path d="m1079.601 191.671-12.401-21.48-12.402 21.48z" fill="#080808" stroke="#2a2a2a" stroke-width=".666667"/>
      <path d="m1067.2 213.151-12.402-21.48-12.402 21.48z" fill="#191919" stroke="#2a2a2a" stroke-width=".666667"/>
      <path d="m1067.2 213.151-12.402-21.48h24.803z" fill="#111" stroke="#2a2a2a" stroke-width=".666667"/>
      <path d="m1067.2 256.113-12.402-21.48-12.402 21.48zM1054.798 234.633l-12.402-21.482-12.402 21.482z" fill="#191919" stroke="#2a2a2a" stroke-width=".666667"/>
      <path d="m1042.396 256.113-12.402-21.48-12.401 21.48z" fill="#080808" stroke="#2a2a2a" stroke-width=".666667"/>
      <path d="m1042.396 256.113-12.402-21.48h24.804zM1067.2 256.113l-12.402-21.48h24.803zM1054.798 234.633l-12.402-21.482h24.804z" fill="#191919" stroke="#2a2a2a" stroke-width=".666667"/>
      <path d="M1079.601 234.633 1067.2 213.15h24.802z" fill="#111" stroke="#2a2a2a" stroke-width=".666667"/>
      <path d="M1079.601 234.633 1067.2 213.15l-12.402 21.482zM1067.2 342.033l-12.402-21.48-12.402 21.48z" fill="#111" stroke="#2a2a2a" stroke-width=".666667"/>
      <path d="m1054.798 320.553-12.402-21.48-12.402 21.48z" fill="#191919" stroke="#2a2a2a" stroke-width=".666667"/>
      <path d="m1042.396 342.033-12.402-21.48-12.401 21.48z" fill="#111" stroke="#2a2a2a" stroke-width=".666667"/>
      <path d="m1042.396 342.033-12.402-21.48h24.804zM1042.396 299.073l-12.402-21.48-12.401 21.48z" fill="#080808" stroke="#2a2a2a" stroke-width=".666667"/>
      <path d="m1029.994 277.593-12.401-21.48-12.401 21.48z" fill="#080808" stroke="#2a2a2a" stroke-width=".666667"/>
      <path d="m1017.593 299.073-12.401-21.48-12.403 21.48z" fill="#111" stroke="#2a2a2a" stroke-width=".666667"/>
      <path d="m1017.593 299.073-12.401-21.48h24.802z" fill="#191919" stroke="#2a2a2a" stroke-width=".666667"/>
      <path d="m1017.593 342.033-12.401-21.48-12.403 21.48zM1005.192 320.553l-12.403-21.48-12.401 21.48z" fill="#111" stroke="#2a2a2a" stroke-width=".666667"/>
      <path d="m992.789 342.033-12.401-21.48-12.402 21.48z" fill="#080808" stroke="#2a2a2a" stroke-width=".666667"/>
      <path d="m992.789 342.033-12.401-21.48h24.804z" fill="#080808" stroke="#2a2a2a" stroke-width=".666667"/>
      <path d="m1017.593 342.033-12.401-21.48h24.802z" fill="#111" stroke="#2a2a2a" stroke-width=".666667"/>
      <path d="m1005.192 320.553-12.403-21.48h24.804z" fill="#080808" stroke="#2a2a2a" stroke-width=".666667"/>
      <path d="m1029.994 320.553-12.401-21.48h24.803z" fill="#191919" stroke="#2a2a2a" stroke-width=".666667"/>
      <path d="m1029.994 320.553-12.401-21.48-12.401 21.48z" fill="#080808" stroke="#2a2a2a" stroke-width=".666667"/>
      <path d="m1067.2 342.033-12.402-21.48h24.803z" fill="#111" stroke="#2a2a2a" stroke-width=".666667"/>
      <path d="m1054.798 320.553-12.402-21.48h24.804zM1079.601 320.553l-12.401-21.48h24.802z" fill="#080808" stroke="#2a2a2a" stroke-width=".666667"/>
      <path d="m1079.601 320.553-12.401-21.48-12.402 21.48z" fill="#191919" stroke="#2a2a2a" stroke-width=".666667"/>
      <path d="m1042.396 299.073-12.402-21.48h24.804z" fill="#080808" stroke="#2a2a2a" stroke-width=".666667"/>
      <path d="m1029.994 277.593-12.401-21.48h24.803zM1054.798 277.593l-12.402-21.48h24.804z" fill="#080808" stroke="#2a2a2a" stroke-width=".666667"/>
      <path d="m1054.798 277.593-12.402-21.48-12.402 21.48zM1079.601 277.593l-12.401-21.48h24.802z" fill="#111" stroke="#2a2a2a" stroke-width=".666667"/>
      <path d="m1092.002 299.073-12.401-21.48-12.401 21.48z" fill="#191919" stroke="#2a2a2a" stroke-width=".666667"/>
      <path d="m1079.601 277.593-12.401-21.48-12.402 21.48z" fill="#080808" stroke="#2a2a2a" stroke-width=".666667"/>
      <path d="m1067.2 299.073-12.402-21.48-12.402 21.48z" fill="#191919" stroke="#2a2a2a" stroke-width=".666667"/>
      <path d="m1067.2 299.073-12.402-21.48h24.803z" fill="#111" stroke="#2a2a2a" stroke-width=".666667"/>
    </g>
  </symbol>
</svg>
