<?xml version="1.0" encoding="utf-8"?>

<svg xmlns="http://www.w3.org/2000/svg">
  <symbol id="logo" viewBox="0 0 96 96">
    <path d="M 43.5,10 c -0.54,0 -1.11,0.02 -1.63,0.06 -10.92,0.82 -19.51,9.82 -19.51,20.79 0,8.75 5.47,16.24 13.22,19.33 1.67,0.74 1.67,0.71 1.67,0.71 L 17.64,86 h 16.82 l 19.1,-34.3 h 5.08 V 86 h 15 V 10 Z m 8.89,6.13 c 2.05,0.01 6.24,0 6.24,0 v 28.34 h -6.24 c -8.32,0 -15.07,-6.34 -15.07,-14.17 0,-4.13 1.89,-7.83 4.88,-10.42 0.03,-0.03 0.06,-0.05 0.1,-0.08 2.67,-2.28 6.21,-3.67 10.1,-3.67 Z" />
  </symbol>

  <symbol id="logo-in-circle" viewBox="0 0 96 96">
    <circle r="48" cx="48" cy="48" fill="#fff" />
    <use href="#logo" x="12.5%" width="75%" fill="#2a92ea" />
  </symbol>
</svg>
